<?xml version="1.0" encoding="UTF-8" standalone="no"?>
<!-- Created with Inkscape (http://www.inkscape.org/) -->

<svg
   width="400mm"
   height="420mm"
   viewBox="0 0 400 420"
   version="1.1"
   id="svg5"
   inkscape:version="1.1 (c68e22c387, 2021-05-23)"
   sodipodi:docname="12 Sistema con Observador Retroalimentado.svg"
   inkscape:export-filename="D:\Estudiar\Inteligencia Artificial\IPN_UPIITA_Apuntes\Control Sistemas Mecatronicos\Control de sistemas Mecatronicos Figuras\12 Sistema con Observador Retroalimentado.png"
   inkscape:export-xdpi="93.08194"
   inkscape:export-ydpi="93.08194"
   xmlns:inkscape="http://www.inkscape.org/namespaces/inkscape"
   xmlns:sodipodi="http://sodipodi.sourceforge.net/DTD/sodipodi-0.dtd"
   xmlns="http://www.w3.org/2000/svg"
   xmlns:svg="http://www.w3.org/2000/svg">
  <sodipodi:namedview
     id="namedview7"
     pagecolor="#ffffff"
     bordercolor="#666666"
     borderopacity="1.0"
     inkscape:pageshadow="2"
     inkscape:pageopacity="0.0"
     inkscape:pagecheckerboard="0"
     inkscape:document-units="mm"
     showgrid="true"
     inkscape:zoom="0.47448612"
     inkscape:cx="723.9411"
     inkscape:cy="797.70511"
     inkscape:window-width="1920"
     inkscape:window-height="1051"
     inkscape:window-x="-9"
     inkscape:window-y="-9"
     inkscape:window-maximized="1"
     inkscape:current-layer="layer1"
     width="520mm"
     height="230mm"
     showguides="true"
     inkscape:guide-bbox="true">
    <inkscape:grid
       type="xygrid"
       id="grid832"
       units="mm"
       spacingx="0.99999999"
       spacingy="0.99999999"
       dotted="false"
       visible="false" />
    <sodipodi:guide
       position="470.99999,118"
       orientation="1,0"
       id="guide4033" />
    <sodipodi:guide
       position="359.99999,225"
       orientation="0,-1"
       id="guide1691" />
    <sodipodi:guide
       position="115,170"
       orientation="0,-1"
       id="guide2077" />
    <sodipodi:guide
       position="210,240"
       orientation="1,0"
       id="guide2548" />
    <sodipodi:guide
       position="319.99999,35.000003"
       orientation="0,-1"
       id="guide1719" />
    <sodipodi:guide
       position="67.999998,396.99999"
       orientation="1,0"
       id="guide1758" />
    <sodipodi:guide
       position="74.999999,384.99999"
       orientation="0,-1"
       id="guide1957" />
    <sodipodi:guide
       position="94.999998,275"
       orientation="1,0"
       id="guide3910" />
  </sodipodi:namedview>
  <defs
     id="defs2">
    <inkscape:path-effect
       effect="spiro"
       id="path-effect1215"
       is_visible="true"
       lpeversion="1" />
    <inkscape:path-effect
       effect="spiro"
       id="path-effect1088"
       is_visible="true"
       lpeversion="1" />
    <marker
       style="overflow:visible"
       id="marker40457"
       refX="0"
       refY="0"
       orient="auto"
       inkscape:stockid="Arrow1Mend"
       inkscape:isstock="true">
      <path
         transform="matrix(-0.4,0,0,-0.4,-4,0)"
         style="fill:context-stroke;fill-rule:evenodd;stroke:context-stroke;stroke-width:1pt"
         d="M 0,0 5,-5 -12.5,0 5,5 Z"
         id="path40455" />
    </marker>
    <inkscape:path-effect
       effect="spiro"
       id="path-effect33896"
       is_visible="true"
       lpeversion="1" />
    <marker
       style="overflow:visible"
       id="Arrow1Mend"
       refX="0"
       refY="0"
       orient="auto"
       inkscape:stockid="Arrow1Mend"
       inkscape:isstock="true">
      <path
         transform="matrix(-0.4,0,0,-0.4,-4,0)"
         style="fill:context-stroke;fill-rule:evenodd;stroke:context-stroke;stroke-width:1pt"
         d="M 0,0 5,-5 -12.5,0 5,5 Z"
         id="path18783" />
    </marker>
    <rect
       x="510.23621"
       y="94.48819"
       width="170.07874"
       height="151.18111"
       id="rect4149" />
    <rect
       x="510.23621"
       y="94.48819"
       width="170.07874"
       height="151.18111"
       id="rect4149-2" />
    <rect
       x="510.23621"
       y="94.48819"
       width="170.07874"
       height="151.18111"
       id="rect4149-2-6" />
    <rect
       x="510.23621"
       y="94.48819"
       width="170.07874"
       height="151.18111"
       id="rect9257" />
    <inkscape:path-effect
       effect="spiro"
       id="path-effect1345"
       is_visible="true"
       lpeversion="1" />
    <marker
       style="overflow:visible"
       id="Arrow1Mend-2"
       refX="0"
       refY="0"
       orient="auto"
       inkscape:stockid="Arrow1Mend"
       inkscape:isstock="true">
      <path
         transform="matrix(-0.4,0,0,-0.4,-4,0)"
         style="fill:context-stroke;fill-rule:evenodd;stroke:context-stroke;stroke-width:1pt"
         d="M 0,0 5,-5 -12.5,0 5,5 Z"
         id="path18783-2" />
    </marker>
  </defs>
  <g
     inkscape:label="Capa 1"
     inkscape:groupmode="layer"
     id="layer1">
    <g
       id="g8776"
       transform="translate(-2.752095)">
      <path
         style="fill:none;fill-rule:evenodd;stroke:#0b0000;stroke-opacity:1"
         id="path8815"
         sodipodi:type="arc"
         sodipodi:cx="70.275002"
         sodipodi:cy="40.09166"
         sodipodi:rx="12.5"
         sodipodi:ry="12.5"
         sodipodi:start="4.7442412"
         sodipodi:end="4.7380453"
         sodipodi:open="true"
         sodipodi:arc-type="arc"
         d="M 70.673087,27.598 A 12.5,12.5 0 0 1 82.769263,40.470392 12.5,12.5 0 0 1 69.915623,52.586492 12.5,12.5 0 0 1 57.779627,39.751635 12.5,12.5 0 0 1 70.59567,27.595773" />
      <path
         style="fill:none;stroke:#000000;stroke-width:0.5;stroke-linecap:butt;stroke-linejoin:miter;stroke-miterlimit:4;stroke-dasharray:none;stroke-opacity:1"
         d="M 60.774991,32.237497 79.774957,48.237496"
         id="path9162" />
      <path
         style="fill:none;stroke:#000000;stroke-width:0.5;stroke-linecap:butt;stroke-linejoin:miter;stroke-miterlimit:4;stroke-dasharray:none;stroke-opacity:1"
         d="M 60.774991,48.237496 79.774957,32.237497"
         id="path9164" />
    </g>
    <text
       xml:space="preserve"
       style="font-style:normal;font-weight:normal;font-size:10.5833px;line-height:1.25;font-family:sans-serif;fill:#000000;fill-opacity:1;stroke:none;stroke-width:0.264583"
       x="43.914799"
       y="30.533218"
       id="text10446"><tspan
         sodipodi:role="line"
         id="tspan10444"
         style="stroke-width:0.264583"
         x="43.914799"
         y="30.533218">+</tspan></text>
    <text
       xml:space="preserve"
       style="font-style:normal;font-weight:normal;font-size:10.5833px;line-height:1.25;font-family:sans-serif;fill:#000000;fill-opacity:1;stroke:none;stroke-width:0.264583"
       x="49.380375"
       y="55.703075"
       id="text11836"><tspan
         sodipodi:role="line"
         id="tspan11834"
         style="stroke-width:0.264583"
         x="49.380375"
         y="55.703075">_</tspan></text>
    <text
       xml:space="preserve"
       style="font-style:normal;font-variant:normal;font-weight:normal;font-stretch:normal;font-size:15.875px;line-height:1.25;font-family:sans-serif;-inkscape-font-specification:'sans-serif, Normal';font-variant-ligatures:normal;font-variant-caps:normal;font-variant-numeric:normal;font-variant-east-asian:normal;fill:#000000;fill-opacity:1;stroke:none;stroke-width:0.264583"
       x="217.41592"
       y="33.878922"
       id="text15388"><tspan
         sodipodi:role="line"
         id="tspan15386"
         style="font-style:normal;font-variant:normal;font-weight:normal;font-stretch:normal;font-size:15.875px;font-family:sans-serif;-inkscape-font-specification:'sans-serif, Normal';font-variant-ligatures:normal;font-variant-caps:normal;font-variant-numeric:normal;font-variant-east-asian:normal;stroke-width:0.264583"
         x="217.41592"
         y="33.878922">x</tspan></text>
    <path
       style="fill:#000000;fill-rule:evenodd"
       id="path16138"
       sodipodi:type="arc"
       sodipodi:cx="222.22441"
       sodipodi:cy="22.928173"
       sodipodi:rx="1.25"
       sodipodi:ry="1.25"
       sodipodi:start="4.7442412"
       sodipodi:end="4.7380453"
       sodipodi:open="true"
       sodipodi:arc-type="arc"
       d="m 222.26422,21.678807 a 1.25,1.25 0 0 1 1.20962,1.287239 1.25,1.25 0 0 1 -1.28537,1.21161 1.25,1.25 0 0 1 -1.2136,-1.283485 1.25,1.25 0 0 1 1.28161,-1.215587" />
    <rect
       style="fill:#ffffff;fill-rule:evenodd;stroke:#000000;stroke-width:1;stroke-linecap:round;stroke-linejoin:round;stroke-miterlimit:4;stroke-dasharray:none"
       id="rect2174"
       width="39.999996"
       height="34.762501"
       x="296.95422"
       y="22.883335" />
    <text
       xml:space="preserve"
       style="font-style:normal;font-variant:normal;font-weight:normal;font-stretch:normal;font-size:21.1667px;line-height:1.25;font-family:sans-serif;-inkscape-font-specification:'sans-serif, Normal';font-variant-ligatures:normal;font-variant-caps:normal;font-variant-numeric:normal;font-variant-east-asian:normal;fill:#000000;fill-opacity:1;stroke:none;stroke-width:0.264583"
       x="309.4342"
       y="47.933578"
       id="text3384"><tspan
         sodipodi:role="line"
         id="tspan3382"
         style="font-style:normal;font-variant:normal;font-weight:normal;font-stretch:normal;font-size:21.1667px;font-family:sans-serif;-inkscape-font-specification:'sans-serif, Normal';font-variant-ligatures:normal;font-variant-caps:normal;font-variant-numeric:normal;font-variant-east-asian:normal;stroke-width:0.264583"
         x="309.4342"
         y="47.933578">C</tspan></text>
    <path
       style="fill:#000000;fill-opacity:1;stroke:#000000;stroke-width:0.125244px;stroke-linecap:butt;stroke-linejoin:miter;stroke-opacity:1"
       d="m 259.2312,20.529167 c 0.42415,-0.07046 0.81607,-0.296243 1.11222,-0.607945 0.29616,-0.311702 0.49895,-0.705974 0.61021,-1.121294 0.2225,-0.830641 0.0836,-1.717353 -0.16209,-2.541427 -0.14292,-0.479338 -0.32273,-0.950682 -0.57981,-1.379753 -0.35757,-0.596796 -0.88446,-1.116805 -1.54329,-1.340332 -0.43415,-0.147298 -0.90778,-0.159692 -1.35818,-0.07414 -0.45041,0.08555 -0.87895,0.266273 -1.27649,0.494635 -0.79595,0.457232 -1.47669,1.110222 -1.97813,1.879093 -0.35977,0.551649 -0.6269,1.158446 -0.86118,1.773969 -0.43222,1.13559 -0.75765,2.309679 -1.02317,3.495375 -0.24327,1.086331 -0.43668,2.183473 -0.59685,3.285127 -0.18836,1.295569 -0.33083,2.597679 -0.43485,3.902731 -0.13835,1.735855 -0.20866,3.476323 -0.28049,5.216201 -0.0597,1.445355 -0.1204,2.890762 -0.15436,4.336949 -0.0408,1.738644 -0.0429,3.477984 -0.0767,5.21678 -0.0283,1.45887 -0.0789,2.917205 -0.11934,4.375791 -0.0507,1.831346 -0.0854,3.663535 -0.18758,5.492731 -0.10124,1.811839 -0.26867,3.619225 -0.42632,5.427029 -0.0921,1.056087 -0.18347,2.125115 -0.52863,3.127444 -0.13079,0.37979 -0.29711,0.746968 -0.41781,1.130082 -0.0413,0.131073 -0.0789,0.267249 -0.16204,0.376651 -0.0416,0.0547 -0.0946,0.101725 -0.15707,0.130249 -0.0625,0.02852 -0.13493,0.03759 -0.201,0.01872 -0.0748,-0.02138 -0.13653,-0.0767 -0.1796,-0.141542 -0.0431,-0.06484 -0.0695,-0.139117 -0.0933,-0.213251 -0.11591,-0.362067 -0.17663,-0.739455 -0.22169,-1.116942 -0.0394,-0.329926 -0.0673,-0.662464 -0.14494,-0.985538 -0.0844,-0.351415 -0.22647,-0.686399 -0.3837,-1.011824 -0.13445,-0.278274 -0.29013,-0.56206 -0.54568,-0.735864 -0.14402,-0.09795 -0.31349,-0.155411 -0.48618,-0.178079 -0.17268,-0.02267 -0.3487,-0.01137 -0.51995,0.02039 -0.44948,0.08337 -0.8715,0.31134 -1.18518,0.643886 -0.38161,0.404553 -0.59209,0.942777 -0.71623,1.48488 -0.25081,1.09523 -0.16821,2.293297 0.3837,3.271982 0.44139,0.782704 1.19033,1.403695 2.0634,1.616287 0.82413,0.200675 1.71954,0.02867 2.4471,-0.407357 0.81176,-0.486494 1.40537,-1.26818 1.87582,-2.089344 0.75176,-1.312183 1.23677,-2.761873 1.59444,-4.23124 0.37039,-1.521657 0.6087,-3.072366 0.81002,-4.625461 0.25975,-2.00386 0.4587,-4.015596 0.59685,-6.031493 0.17805,-2.598081 0.25507,-5.201989 0.31548,-7.805463 0.0513,-2.211758 0.0907,-4.42379 0.11933,-6.635957 0.0355,-2.742931 0.0546,-5.487379 0.21315,-8.225957 0.0986,-1.702734 0.25091,-3.401978 0.42633,-5.098517 0.11063,-1.06995 0.23407,-2.153967 0.63096,-3.153722 0.13736,-0.346014 0.3072,-0.680147 0.52011,-0.985538 0.0406,-0.05822 0.0835,-0.116144 0.13935,-0.159881 0.0279,-0.02187 0.059,-0.03999 0.0926,-0.05153 0.0335,-0.01154 0.0696,-0.01638 0.10485,-0.01198 0.0388,0.0048 0.0759,0.02085 0.10755,0.04382 0.0317,0.02297 0.0581,0.05274 0.0793,0.08562 0.0424,0.06575 0.0638,0.142614 0.0817,0.218792 0.0856,0.364499 0.10341,0.741279 0.16627,1.110373 0.0598,0.351384 0.16034,0.694757 0.27711,1.03153 0.17911,0.516542 0.41221,1.040424 0.83559,1.386323 0.38471,0.314305 0.90825,0.449345 1.39831,0.367935 z"
       id="path1343"
       inkscape:path-effect="#path-effect1345"
       inkscape:original-d="m 259.2312,20.529167 c 0.46621,0.122489 1.04012,-2.846955 1.56034,-4.270666 0.52021,-1.42371 -0.38664,-0.91968 -0.57981,-1.379753 -0.19316,-0.460074 -1.02895,-0.893399 -1.54329,-1.340332 -0.51432,-0.446933 -1.75654,0.280486 -2.63467,0.420496 -0.87812,0.14001 -1.31886,1.252884 -1.97813,1.879093 -0.65929,0.626209 -0.57422,1.182801 -0.86118,1.773969 -0.28696,0.591167 -0.68222,2.330405 -1.02317,3.495375 -0.34095,1.164969 -0.398,2.19024 -0.59685,3.285127 -0.19885,1.094887 -0.29,2.601977 -0.43485,3.902731 -0.1448,1.300755 -0.1871,3.477623 -0.28049,5.216201 -0.0934,1.738577 -0.10305,2.891454 -0.15436,4.336949 -0.0514,1.445493 -0.0512,3.478008 -0.0767,5.21678 -0.0255,1.738773 -0.0797,2.91735 -0.11934,4.375791 -0.0397,1.458439 -0.1251,3.661976 -0.18758,5.492731 -0.0625,1.830757 -0.28431,3.618178 -0.42632,5.427029 -0.14199,1.808856 -0.35252,2.085115 -0.52863,3.127444 -0.17613,1.042323 -0.27864,0.753541 -0.41781,1.130082 -0.13917,0.376541 -0.34685,0.350573 -0.52011,0.525622 -0.17327,0.175048 -0.18201,-0.236376 -0.27285,-0.354793 -0.0909,-0.118422 -0.14791,-0.744473 -0.22169,-1.116942 -0.0737,-0.372475 -0.0967,-0.656873 -0.14494,-0.985538 -0.0483,-0.328672 -0.2559,-0.674391 -0.3837,-1.011824 -0.12777,-0.337427 -0.36389,-0.490422 -0.54568,-0.735864 -0.1818,-0.245449 -0.67085,-0.104972 -1.00613,-0.15769 -0.33527,-0.05271 -0.79021,0.429412 -1.18518,0.643886 -0.39496,0.214474 -0.47758,0.990075 -0.71623,1.48488 -0.23863,0.4948 0.25569,2.181478 0.3837,3.271982 0.12807,1.090513 1.3755,1.077678 2.0634,1.616287 0.68791,0.538603 1.6313,-0.271417 2.4471,-0.407357 0.8158,-0.135941 1.25044,-1.39274 1.87582,-2.089344 0.62538,-0.696603 1.06287,-2.820668 1.59444,-4.23124 0.53159,-1.410573 0.53991,-3.083483 0.81002,-4.625461 0.2701,-1.541975 0.3978,-4.020839 0.59685,-6.031493 0.19905,-2.010653 0.21021,-5.203485 0.31548,-7.805463 0.10527,-2.601976 0.0795,-4.423816 0.11933,-6.635957 0.0398,-2.212141 0.14198,-5.483815 0.21315,-8.225957 0.0712,-2.742141 0.28412,-3.398856 0.42633,-5.098517 0.14228,-1.699661 0.42054,-2.102326 0.63096,-3.153722 0.21041,-1.051396 0.34664,-0.65687 0.52011,-0.985538 0.17346,-0.328668 0.22444,-0.14877 0.3368,-0.223389 0.11237,-0.07462 0.17895,0.232305 0.26858,0.348224 0.0896,0.115918 0.11075,0.740404 0.16627,1.110373 0.0555,0.369969 0.18464,0.687842 0.27711,1.03153 0.0925,0.343687 0.55697,0.924371 0.83559,1.386323 0.2786,0.461953 0.9321,0.245445 1.39831,0.367935 z" />
    <rect
       style="fill:none;fill-rule:evenodd;stroke:#000000;stroke-width:1;stroke-linecap:round;stroke-linejoin:round;stroke-miterlimit:4;stroke-dasharray:none"
       id="rect4560"
       width="25.000002"
       height="59.999996"
       x="240.28951"
       y="10" />
    <rect
       style="fill:#ffffff;fill-rule:evenodd;stroke:#000000;stroke-width:1;stroke-linecap:round;stroke-linejoin:round;stroke-miterlimit:4;stroke-dasharray:none"
       id="rect2174-4"
       width="39.999996"
       height="34.762501"
       x="215.32716"
       y="91.55204" />
    <text
       xml:space="preserve"
       style="font-style:normal;font-variant:normal;font-weight:normal;font-stretch:normal;font-size:21.1667px;line-height:1.25;font-family:sans-serif;-inkscape-font-specification:'sans-serif, Normal';font-variant-ligatures:normal;font-variant-caps:normal;font-variant-numeric:normal;font-variant-east-asian:normal;fill:#000000;fill-opacity:1;stroke:none;stroke-width:0.264583"
       x="227.80714"
       y="116.60229"
       id="text3384-6"><tspan
         sodipodi:role="line"
         id="tspan3382-2"
         style="font-style:normal;font-variant:normal;font-weight:normal;font-stretch:normal;font-size:21.1667px;font-family:sans-serif;-inkscape-font-specification:'sans-serif, Normal';font-variant-ligatures:normal;font-variant-caps:normal;font-variant-numeric:normal;font-variant-east-asian:normal;stroke-width:0.264583"
         x="227.80714"
         y="116.60229">A</tspan></text>
    <rect
       style="fill:#ffffff;fill-rule:evenodd;stroke:#000000;stroke-width:1;stroke-linecap:round;stroke-linejoin:round;stroke-miterlimit:4;stroke-dasharray:none"
       id="rect2174-9"
       width="39.999996"
       height="34.762501"
       x="111.80724"
       y="23.012503" />
    <text
       xml:space="preserve"
       style="font-style:normal;font-variant:normal;font-weight:normal;font-stretch:normal;font-size:21.1667px;line-height:1.25;font-family:sans-serif;-inkscape-font-specification:'sans-serif, Normal';font-variant-ligatures:normal;font-variant-caps:normal;font-variant-numeric:normal;font-variant-east-asian:normal;fill:#000000;fill-opacity:1;stroke:none;stroke-width:0.264583"
       x="124.28722"
       y="48.062721"
       id="text3384-3"><tspan
         sodipodi:role="line"
         id="tspan3382-3"
         style="font-style:normal;font-variant:normal;font-weight:normal;font-stretch:normal;font-size:21.1667px;font-family:sans-serif;-inkscape-font-specification:'sans-serif, Normal';font-variant-ligatures:normal;font-variant-caps:normal;font-variant-numeric:normal;font-variant-east-asian:normal;stroke-width:0.264583"
         x="124.28722"
         y="48.062721">B</tspan></text>
    <path
       style="fill:none;fill-rule:evenodd;stroke:#0b0000;stroke-opacity:1"
       id="path8759"
       sodipodi:type="arc"
       sodipodi:cx="195.64383"
       sodipodi:cy="40.09166"
       sodipodi:rx="12.5"
       sodipodi:ry="12.5"
       sodipodi:start="4.7442412"
       sodipodi:end="4.7380453"
       sodipodi:open="true"
       sodipodi:arc-type="arc"
       d="m 196.04191,27.598 a 12.5,12.5 0 0 1 12.09618,12.872392 12.5,12.5 0 0 1 -12.85364,12.1161 12.5,12.5 0 0 1 -12.136,-12.834857 12.5,12.5 0 0 1 12.81605,-12.155862" />
    <path
       style="fill:none;stroke:#000000;stroke-width:0.5;stroke-linecap:butt;stroke-linejoin:miter;stroke-miterlimit:4;stroke-dasharray:none;stroke-opacity:1"
       d="m 186.14369,32.237497 18.99996,15.999999"
       id="path8761" />
    <path
       style="fill:none;stroke:#000000;stroke-width:0.5;stroke-linecap:butt;stroke-linejoin:miter;stroke-miterlimit:4;stroke-dasharray:none;stroke-opacity:1"
       d="M 186.14369,48.237496 205.14365,32.237497"
       id="path8763" />
    <text
       xml:space="preserve"
       style="font-style:normal;font-weight:normal;font-size:10.5833px;line-height:1.25;font-family:sans-serif;fill:#000000;fill-opacity:1;stroke:none;stroke-width:0.264583"
       x="172.03572"
       y="30.533218"
       id="text8767"><tspan
         sodipodi:role="line"
         id="tspan8765"
         style="stroke-width:0.264583"
         x="172.03572"
         y="30.533218">+</tspan></text>
    <path
       style="fill:none;stroke:#000000;stroke-width:1;stroke-linecap:butt;stroke-linejoin:miter;stroke-miterlimit:4;stroke-dasharray:none;stroke-opacity:1;marker-end:url(#Arrow1Mend)"
       d="M 3.9999999,39.999999 H 50.999998"
       id="path8816" />
    <path
       style="fill:none;stroke:#000000;stroke-width:1;stroke-linecap:butt;stroke-linejoin:miter;stroke-miterlimit:4;stroke-dasharray:none;stroke-opacity:1;marker-end:url(#Arrow1Mend)"
       d="M 80.474994,39.999999 H 109.08668"
       id="path8955" />
    <path
       style="fill:none;stroke:#000000;stroke-width:1;stroke-linecap:butt;stroke-linejoin:miter;stroke-miterlimit:4;stroke-dasharray:none;stroke-opacity:1;marker-end:url(#Arrow1Mend)"
       d="M 151.58751,39.999999 H 180.1992"
       id="path9095" />
    <path
       style="fill:none;stroke:#000000;stroke-width:1;stroke-linecap:butt;stroke-linejoin:miter;stroke-miterlimit:4;stroke-dasharray:none;stroke-opacity:1;marker-end:url(#Arrow1Mend)"
       d="m 208.46672,39.999999 h 28.61169"
       id="path9097" />
    <path
       style="fill:none;stroke:#000000;stroke-width:1;stroke-linecap:butt;stroke-linejoin:miter;stroke-miterlimit:4;stroke-dasharray:none;stroke-opacity:1;marker-end:url(#Arrow1Mend)"
       d="m 265.23747,39.999999 h 28.61169"
       id="path9099" />
    <path
       style="fill:none;stroke:#000000;stroke-width:1;stroke-linecap:butt;stroke-linejoin:miter;stroke-miterlimit:4;stroke-dasharray:none;stroke-opacity:1;marker-end:url(#Arrow1Mend)"
       d="m 337.05834,39.999999 h 47"
       id="path9183" />
    <path
       style="fill:none;stroke:#000000;stroke-width:1;stroke-linecap:butt;stroke-linejoin:miter;stroke-miterlimit:4;stroke-dasharray:none;stroke-opacity:1;marker-end:url(#Arrow1Mend)"
       d="M 215,110 H 195.99999 V 54.999998"
       id="path9345" />
    <text
       xml:space="preserve"
       style="font-style:normal;font-weight:normal;font-size:10.5833px;line-height:1.25;font-family:sans-serif;fill:#000000;fill-opacity:1;stroke:none;stroke-width:0.264583"
       x="177.03572"
       y="60.533218"
       id="text8767-1"><tspan
         sodipodi:role="line"
         id="tspan8765-2"
         style="stroke-width:0.264583"
         x="177.03572"
         y="60.533218">+</tspan></text>
    <text
       xml:space="preserve"
       style="font-style:normal;font-variant:normal;font-weight:normal;font-stretch:normal;font-size:15.875px;line-height:1.25;font-family:sans-serif;-inkscape-font-specification:'sans-serif, Normal';font-variant-ligatures:normal;font-variant-caps:normal;font-variant-numeric:normal;font-variant-east-asian:normal;fill:#000000;fill-opacity:1;stroke:none;stroke-width:0.264583"
       x="19.470833"
       y="33.941666"
       id="text11230"><tspan
         sodipodi:role="line"
         id="tspan11228"
         style="font-style:normal;font-variant:normal;font-weight:normal;font-stretch:normal;font-size:15.875px;font-family:sans-serif;-inkscape-font-specification:'sans-serif, Normal';font-variant-ligatures:normal;font-variant-caps:normal;font-variant-numeric:normal;font-variant-east-asian:normal;stroke-width:0.264583"
         x="19.470833"
         y="33.941666">r</tspan></text>
    <text
       xml:space="preserve"
       style="font-style:normal;font-variant:normal;font-weight:normal;font-stretch:normal;font-size:15.875px;line-height:1.25;font-family:sans-serif;-inkscape-font-specification:'sans-serif, Normal';font-variant-ligatures:normal;font-variant-caps:normal;font-variant-numeric:normal;font-variant-east-asian:normal;fill:#000000;fill-opacity:1;stroke:none;stroke-width:0.264583"
       x="276.64932"
       y="33.878922"
       id="text15388-4"><tspan
         sodipodi:role="line"
         id="tspan15386-4"
         style="font-style:normal;font-variant:normal;font-weight:normal;font-stretch:normal;font-size:15.875px;font-family:sans-serif;-inkscape-font-specification:'sans-serif, Normal';font-variant-ligatures:normal;font-variant-caps:normal;font-variant-numeric:normal;font-variant-east-asian:normal;stroke-width:0.264583"
         x="276.64932"
         y="33.878922">x</tspan></text>
    <text
       xml:space="preserve"
       style="font-style:normal;font-variant:normal;font-weight:normal;font-stretch:normal;font-size:15.875px;line-height:1.25;font-family:sans-serif;-inkscape-font-specification:'sans-serif, Normal';font-variant-ligatures:normal;font-variant-caps:normal;font-variant-numeric:normal;font-variant-east-asian:normal;fill:#000000;fill-opacity:1;stroke:none;stroke-width:0.264583"
       x="366.64932"
       y="30.703918"
       id="text15388-0"><tspan
         sodipodi:role="line"
         id="tspan15386-2"
         style="font-style:normal;font-variant:normal;font-weight:normal;font-stretch:normal;font-size:15.875px;font-family:sans-serif;-inkscape-font-specification:'sans-serif, Normal';font-variant-ligatures:normal;font-variant-caps:normal;font-variant-numeric:normal;font-variant-east-asian:normal;stroke-width:0.264583"
         x="366.64932"
         y="30.703918">y</tspan></text>
    <path
       style="fill:none;stroke:#000000;stroke-width:1;stroke-linecap:butt;stroke-linejoin:miter;stroke-miterlimit:4;stroke-dasharray:none;stroke-opacity:1;marker-end:url(#Arrow1Mend)"
       d="M 284.99998,39.999999 V 110 h -26.99999"
       id="path618" />
    <path
       style="fill:#000000;fill-rule:evenodd"
       id="path1209"
       sodipodi:type="arc"
       sodipodi:cx="235.91718"
       sodipodi:cy="229.1949"
       sodipodi:rx="1.25"
       sodipodi:ry="1.25"
       sodipodi:start="4.7442412"
       sodipodi:end="4.7380453"
       sodipodi:open="true"
       sodipodi:arc-type="arc"
       d="m 235.95698,227.94553 a 1.25,1.25 0 0 1 1.20962,1.28724 1.25,1.25 0 0 1 -1.28536,1.21161 1.25,1.25 0 0 1 -1.2136,-1.28348 1.25,1.25 0 0 1 1.2816,-1.21559" />
    <path
       style="fill:#000000;fill-opacity:1;stroke:#000000;stroke-width:0.125244px;stroke-linecap:butt;stroke-linejoin:miter;stroke-opacity:1"
       d="m 272.92396,231.02917 c 0.42415,-0.0705 0.81607,-0.29624 1.11223,-0.60794 0.29616,-0.31171 0.49895,-0.70598 0.6102,-1.1213 0.2225,-0.83064 0.0836,-1.71736 -0.16209,-2.54143 -0.14292,-0.47934 -0.32273,-0.95068 -0.57981,-1.37975 -0.35757,-0.5968 -0.88446,-1.1168 -1.54329,-1.34033 -0.43415,-0.1473 -0.90778,-0.15969 -1.35818,-0.0741 -0.45041,0.0855 -0.87895,0.26627 -1.27649,0.49463 -0.79595,0.45723 -1.47669,1.11022 -1.97813,1.87909 -0.35977,0.55165 -0.6269,1.15845 -0.86118,1.77397 -0.43222,1.13559 -0.75765,2.30968 -1.02317,3.49538 -0.24327,1.08633 -0.43668,2.18348 -0.59685,3.28513 -0.18836,1.29557 -0.33083,2.59768 -0.43485,3.90273 -0.13835,1.73585 -0.20866,3.47632 -0.28049,5.2162 -0.0597,1.44535 -0.1204,2.89076 -0.15436,4.33695 -0.0408,1.73864 -0.0429,3.47798 -0.0767,5.21678 -0.0283,1.45887 -0.0789,2.9172 -0.11934,4.37579 -0.0507,1.83135 -0.0854,3.66353 -0.18758,5.49273 -0.10124,1.81184 -0.26867,3.61923 -0.42632,5.42703 -0.0921,1.05609 -0.18346,2.12511 -0.52863,3.12744 -0.13079,0.37979 -0.29711,0.74697 -0.41781,1.13008 -0.0413,0.13107 -0.0789,0.26725 -0.16203,0.37666 -0.0416,0.0547 -0.0946,0.10172 -0.15708,0.13025 -0.0625,0.0285 -0.13493,0.0376 -0.201,0.0187 -0.0749,-0.0214 -0.13653,-0.0767 -0.1796,-0.14154 -0.0431,-0.0648 -0.0695,-0.13912 -0.0933,-0.21326 -0.1159,-0.36207 -0.17663,-0.73945 -0.22169,-1.11694 -0.0394,-0.32993 -0.0673,-0.66247 -0.14494,-0.98554 -0.0844,-0.35141 -0.22647,-0.6864 -0.3837,-1.01182 -0.13445,-0.27828 -0.29013,-0.56206 -0.54568,-0.73587 -0.14402,-0.098 -0.31349,-0.15541 -0.48618,-0.17808 -0.17268,-0.0227 -0.3487,-0.0114 -0.51995,0.0204 -0.44948,0.0834 -0.8715,0.31134 -1.18518,0.64389 -0.38161,0.40455 -0.59209,0.94278 -0.71623,1.48488 -0.25081,1.09523 -0.16821,2.2933 0.3837,3.27198 0.44139,0.78271 1.19032,1.4037 2.0634,1.61629 0.82413,0.20067 1.71954,0.0287 2.4471,-0.40736 0.81176,-0.48649 1.40537,-1.26818 1.87582,-2.08934 0.75176,-1.31218 1.23677,-2.76187 1.59444,-4.23124 0.37039,-1.52166 0.6087,-3.07237 0.81002,-4.62546 0.25975,-2.00386 0.4587,-4.0156 0.59685,-6.0315 0.17805,-2.59808 0.25507,-5.20199 0.31548,-7.80546 0.0513,-2.21176 0.0907,-4.42379 0.11933,-6.63596 0.0355,-2.74293 0.0546,-5.48737 0.21315,-8.22595 0.0985,-1.70274 0.25091,-3.40198 0.42633,-5.09852 0.11063,-1.06995 0.23407,-2.15397 0.63096,-3.15372 0.13736,-0.34601 0.3072,-0.68015 0.52011,-0.98554 0.0406,-0.0582 0.0835,-0.11614 0.13935,-0.15988 0.028,-0.0219 0.059,-0.04 0.0926,-0.0515 0.0335,-0.0115 0.0696,-0.0164 0.10485,-0.012 0.0388,0.005 0.0759,0.0208 0.10756,0.0438 0.0317,0.023 0.0581,0.0527 0.0793,0.0856 0.0424,0.0658 0.0638,0.14262 0.0817,0.2188 0.0856,0.3645 0.10341,0.74128 0.16627,1.11037 0.0598,0.35138 0.16034,0.69476 0.27711,1.03153 0.17911,0.51654 0.41221,1.04042 0.83559,1.38632 0.38471,0.31431 0.90825,0.44935 1.39831,0.36794 z"
       id="path1211"
       inkscape:path-effect="#path-effect1215"
       inkscape:original-d="m 272.92396,231.02917 c 0.46621,0.12249 1.04012,-2.84696 1.56034,-4.27067 0.52021,-1.42371 -0.38664,-0.91968 -0.57981,-1.37975 -0.19316,-0.46008 -1.02895,-0.8934 -1.54329,-1.34033 -0.51432,-0.44694 -1.75654,0.28048 -2.63467,0.42049 -0.87812,0.14001 -1.31886,1.25289 -1.97813,1.87909 -0.65929,0.62621 -0.57422,1.18281 -0.86118,1.77397 -0.28696,0.59117 -0.68222,2.33041 -1.02317,3.49538 -0.34095,1.16497 -0.398,2.19024 -0.59685,3.28513 -0.19885,1.09488 -0.29,2.60197 -0.43485,3.90273 -0.1448,1.30075 -0.1871,3.47762 -0.28049,5.2162 -0.0934,1.73857 -0.10305,2.89145 -0.15436,4.33695 -0.0514,1.44549 -0.0512,3.478 -0.0767,5.21678 -0.0255,1.73877 -0.0797,2.91735 -0.11934,4.37579 -0.0397,1.45844 -0.1251,3.66197 -0.18758,5.49273 -0.0625,1.83076 -0.28431,3.61818 -0.42632,5.42703 -0.14199,1.80885 -0.35252,2.08511 -0.52863,3.12744 -0.17613,1.04233 -0.27864,0.75354 -0.41781,1.13008 -0.13917,0.37654 -0.34685,0.35058 -0.52011,0.52563 -0.17327,0.17504 -0.18201,-0.23638 -0.27285,-0.3548 -0.0909,-0.11842 -0.14791,-0.74447 -0.22169,-1.11694 -0.0737,-0.37247 -0.0967,-0.65687 -0.14494,-0.98554 -0.0483,-0.32867 -0.2559,-0.67439 -0.3837,-1.01182 -0.12777,-0.33743 -0.36389,-0.49042 -0.54568,-0.73587 -0.1818,-0.24544 -0.67085,-0.10497 -1.00613,-0.15769 -0.33527,-0.0527 -0.79021,0.42942 -1.18518,0.64389 -0.39496,0.21447 -0.47758,0.99008 -0.71623,1.48488 -0.23863,0.4948 0.25569,2.18148 0.3837,3.27198 0.12807,1.09052 1.3755,1.07768 2.0634,1.61629 0.68791,0.5386 1.6313,-0.27142 2.4471,-0.40736 0.8158,-0.13594 1.25044,-1.39274 1.87582,-2.08934 0.62538,-0.6966 1.06287,-2.82067 1.59444,-4.23124 0.53159,-1.41057 0.53991,-3.08348 0.81002,-4.62546 0.2701,-1.54198 0.3978,-4.02084 0.59685,-6.0315 0.19905,-2.01065 0.21021,-5.20348 0.31548,-7.80546 0.10527,-2.60197 0.0795,-4.42381 0.11933,-6.63596 0.0398,-2.21214 0.14198,-5.48381 0.21315,-8.22595 0.0712,-2.74214 0.28412,-3.39886 0.42633,-5.09852 0.14228,-1.69966 0.42054,-2.10233 0.63096,-3.15372 0.21041,-1.0514 0.34664,-0.65687 0.52011,-0.98554 0.17346,-0.32867 0.22444,-0.14877 0.3368,-0.22339 0.11237,-0.0746 0.17895,0.23231 0.26858,0.34823 0.0896,0.11591 0.11075,0.7404 0.16627,1.11037 0.0555,0.36997 0.18464,0.68784 0.27711,1.03153 0.0925,0.34369 0.55697,0.92437 0.83559,1.38632 0.2786,0.46195 0.9321,0.24545 1.39831,0.36794 z" />
    <rect
       style="fill:none;fill-rule:evenodd;stroke:#000000;stroke-width:1;stroke-linecap:round;stroke-linejoin:round;stroke-miterlimit:4;stroke-dasharray:none"
       id="rect1217"
       width="25.000002"
       height="59.999996"
       x="253.98227"
       y="220.5" />
    <rect
       style="fill:#ffffff;fill-rule:evenodd;stroke:#000000;stroke-width:1.23471;stroke-linecap:round;stroke-linejoin:round;stroke-miterlimit:4;stroke-dasharray:none"
       id="rect1219"
       width="60.980064"
       height="34.762501"
       x="229.01993"
       y="302.05203" />
    <text
       xml:space="preserve"
       style="font-style:normal;font-variant:normal;font-weight:normal;font-stretch:normal;font-size:21.1667px;line-height:1.25;font-family:sans-serif;-inkscape-font-specification:'sans-serif, Normal';font-variant-ligatures:normal;font-variant-caps:normal;font-variant-numeric:normal;font-variant-east-asian:normal;fill:#000000;fill-opacity:1;stroke:none;stroke-width:0.264583"
       x="234.62082"
       y="327.10229"
       id="text1223"><tspan
         sodipodi:role="line"
         id="tspan1221"
         style="font-style:normal;font-variant:normal;font-weight:normal;font-stretch:normal;font-size:21.1667px;font-family:sans-serif;-inkscape-font-specification:'sans-serif, Normal';font-variant-ligatures:normal;font-variant-caps:normal;font-variant-numeric:normal;font-variant-east-asian:normal;stroke-width:0.264583"
         x="234.62082"
         y="327.10229">A-LC</tspan></text>
    <rect
       style="fill:#ffffff;fill-rule:evenodd;stroke:#000000;stroke-width:1;stroke-linecap:round;stroke-linejoin:round;stroke-miterlimit:4;stroke-dasharray:none"
       id="rect1225"
       width="39.999996"
       height="34.762501"
       x="125.5"
       y="233.5125" />
    <text
       xml:space="preserve"
       style="font-style:normal;font-variant:normal;font-weight:normal;font-stretch:normal;font-size:21.1667px;line-height:1.25;font-family:sans-serif;-inkscape-font-specification:'sans-serif, Normal';font-variant-ligatures:normal;font-variant-caps:normal;font-variant-numeric:normal;font-variant-east-asian:normal;fill:#000000;fill-opacity:1;stroke:none;stroke-width:0.264583"
       x="137.97997"
       y="258.56271"
       id="text1229"><tspan
         sodipodi:role="line"
         id="tspan1227"
         style="font-style:normal;font-variant:normal;font-weight:normal;font-stretch:normal;font-size:21.1667px;font-family:sans-serif;-inkscape-font-specification:'sans-serif, Normal';font-variant-ligatures:normal;font-variant-caps:normal;font-variant-numeric:normal;font-variant-east-asian:normal;stroke-width:0.264583"
         x="137.97997"
         y="258.56271">B</tspan></text>
    <path
       style="fill:none;fill-rule:evenodd;stroke:#0b0000;stroke-opacity:1"
       id="path1231"
       sodipodi:type="arc"
       sodipodi:cx="209.33659"
       sodipodi:cy="250.59166"
       sodipodi:rx="12.5"
       sodipodi:ry="12.5"
       sodipodi:start="4.7442412"
       sodipodi:end="4.7380453"
       sodipodi:open="true"
       sodipodi:arc-type="arc"
       d="m 209.73468,238.098 a 12.5,12.5 0 0 1 12.09617,12.87239 12.5,12.5 0 0 1 -12.85364,12.1161 12.5,12.5 0 0 1 -12.13599,-12.83485 12.5,12.5 0 0 1 12.81604,-12.15587" />
    <path
       style="fill:none;stroke:#000000;stroke-width:0.5;stroke-linecap:butt;stroke-linejoin:miter;stroke-miterlimit:4;stroke-dasharray:none;stroke-opacity:1"
       d="m 199.83645,242.7375 18.99996,16"
       id="path1233" />
    <path
       style="fill:none;stroke:#000000;stroke-width:0.5;stroke-linecap:butt;stroke-linejoin:miter;stroke-miterlimit:4;stroke-dasharray:none;stroke-opacity:1"
       d="m 199.83645,258.7375 18.99996,-16"
       id="path1235" />
    <text
       xml:space="preserve"
       style="font-style:normal;font-weight:normal;font-size:10.5833px;line-height:1.25;font-family:sans-serif;fill:#000000;fill-opacity:1;stroke:none;stroke-width:0.264583"
       x="185.72847"
       y="241.03322"
       id="text1239"><tspan
         sodipodi:role="line"
         id="tspan1237"
         style="stroke-width:0.264583"
         x="185.72847"
         y="241.03322">+</tspan></text>
    <path
       style="fill:none;stroke:#000000;stroke-width:1;stroke-linecap:butt;stroke-linejoin:miter;stroke-miterlimit:4;stroke-dasharray:none;stroke-opacity:1;marker-end:url(#Arrow1Mend)"
       d="m 165.28027,250.5 h 28.61169"
       id="path1241" />
    <path
       style="fill:none;stroke:#000000;stroke-width:1;stroke-linecap:butt;stroke-linejoin:miter;stroke-miterlimit:4;stroke-dasharray:none;stroke-opacity:1;marker-end:url(#Arrow1Mend)"
       d="m 222.15948,250.5 h 28.61169"
       id="path1243" />
    <path
       style="fill:none;stroke:#000000;stroke-width:1;stroke-linecap:butt;stroke-linejoin:miter;stroke-miterlimit:4;stroke-dasharray:none;stroke-opacity:1;marker-end:url(#Arrow1Mend)"
       d="M 278.93023,250.5 H 345"
       id="path1245" />
    <path
       style="fill:none;stroke:#000000;stroke-width:1;stroke-linecap:butt;stroke-linejoin:miter;stroke-miterlimit:4;stroke-dasharray:none;stroke-opacity:1;marker-end:url(#Arrow1Mend)"
       d="m 228.69276,320.5 h -19.00001 v -55"
       id="path1247" />
    <text
       xml:space="preserve"
       style="font-style:normal;font-weight:normal;font-size:10.5833px;line-height:1.25;font-family:sans-serif;fill:#000000;fill-opacity:1;stroke:none;stroke-width:0.264583"
       x="190.72847"
       y="271.0332"
       id="text1251"><tspan
         sodipodi:role="line"
         id="tspan1249"
         style="stroke-width:0.264583"
         x="190.72847"
         y="271.0332">+</tspan></text>
    <path
       style="fill:none;stroke:#000000;stroke-width:1;stroke-linecap:butt;stroke-linejoin:miter;stroke-miterlimit:4;stroke-dasharray:none;stroke-opacity:1;marker-end:url(#Arrow1Mend)"
       d="m 319.85954,250.5 v 70 h -26.99999"
       id="path1257" />
    <rect
       style="fill:#ffffff;fill-rule:evenodd;stroke:#000000;stroke-width:1;stroke-linecap:round;stroke-linejoin:round;stroke-miterlimit:4;stroke-dasharray:none"
       id="rect2174-1"
       width="39.999996"
       height="34.762501"
       x="255"
       y="157.88336" />
    <text
       xml:space="preserve"
       style="font-style:normal;font-variant:normal;font-weight:normal;font-stretch:normal;font-size:21.1667px;line-height:1.25;font-family:sans-serif;-inkscape-font-specification:'sans-serif, Normal';font-variant-ligatures:normal;font-variant-caps:normal;font-variant-numeric:normal;font-variant-east-asian:normal;fill:#000000;fill-opacity:1;stroke:none;stroke-width:0.264583"
       x="267.47998"
       y="182.93361"
       id="text3384-1"><tspan
         sodipodi:role="line"
         id="tspan3382-23"
         style="font-style:normal;font-variant:normal;font-weight:normal;font-stretch:normal;font-size:21.1667px;font-family:sans-serif;-inkscape-font-specification:'sans-serif, Normal';font-variant-ligatures:normal;font-variant-caps:normal;font-variant-numeric:normal;font-variant-east-asian:normal;stroke-width:0.264583"
         x="267.47998"
         y="182.93361">L</tspan></text>
    <text
       xml:space="preserve"
       style="font-style:normal;font-variant:normal;font-weight:normal;font-stretch:normal;font-size:15.875px;line-height:1.25;font-family:sans-serif;-inkscape-font-specification:'sans-serif, Normal';font-variant-ligatures:normal;font-variant-caps:normal;font-variant-numeric:normal;font-variant-east-asian:normal;fill:#000000;fill-opacity:1;stroke:none;stroke-width:0.264583"
       x="231.22127"
       y="245.27008"
       id="text15388-4-6"><tspan
         sodipodi:role="line"
         id="tspan15386-4-6"
         style="font-style:normal;font-variant:normal;font-weight:normal;font-stretch:normal;font-size:15.875px;font-family:sans-serif;-inkscape-font-specification:'sans-serif, Normal';font-variant-ligatures:normal;font-variant-caps:normal;font-variant-numeric:normal;font-variant-east-asian:normal;stroke-width:0.264583"
         x="231.22127"
         y="245.27008">x</tspan></text>
    <path
       style="fill:none;stroke:#000000;stroke-width:1;stroke-linecap:butt;stroke-linejoin:miter;stroke-miterlimit:4;stroke-dasharray:none;stroke-opacity:1"
       d="m 233,234.5875 2.99998,-2 3.00001,2"
       id="path4148" />
    <text
       xml:space="preserve"
       style="font-style:normal;font-weight:normal;font-size:10.5833px;line-height:1.25;font-family:sans-serif;fill:#000000;fill-opacity:1;stroke:none;stroke-width:0.264583"
       x="215.72847"
       y="233.679"
       id="text1251-0"><tspan
         sodipodi:role="line"
         id="tspan1249-0"
         style="stroke-width:0.264583"
         x="215.72847"
         y="233.679">+</tspan></text>
    <path
       style="fill:none;stroke:#000000;stroke-width:1;stroke-linecap:butt;stroke-linejoin:miter;stroke-miterlimit:4;stroke-dasharray:none;stroke-opacity:1;marker-end:url(#Arrow1Mend)"
       d="M 356.05834,39.999999 V 175 h -58"
       id="path2682" />
    <path
       style="fill:none;stroke:#000000;stroke-width:1;stroke-linecap:butt;stroke-linejoin:miter;stroke-miterlimit:4;stroke-dasharray:none;stroke-opacity:1;marker-end:url(#Arrow1Mend-2)"
       d="m 254.99999,175 h -46 v 60"
       id="path2684" />
    <text
       xml:space="preserve"
       style="font-style:normal;font-variant:normal;font-weight:normal;font-stretch:normal;font-size:15.875px;line-height:1.25;font-family:sans-serif;-inkscape-font-specification:'sans-serif, Normal';font-variant-ligatures:normal;font-variant-caps:normal;font-variant-numeric:normal;font-variant-east-asian:normal;fill:#000000;fill-opacity:1;stroke:none;stroke-width:0.264583"
       x="293.23914"
       y="245.27008"
       id="text1434"><tspan
         sodipodi:role="line"
         id="tspan1432"
         style="font-style:normal;font-variant:normal;font-weight:normal;font-stretch:normal;font-size:15.875px;font-family:sans-serif;-inkscape-font-specification:'sans-serif, Normal';font-variant-ligatures:normal;font-variant-caps:normal;font-variant-numeric:normal;font-variant-east-asian:normal;stroke-width:0.264583"
         x="293.23914"
         y="245.27008">x</tspan></text>
    <path
       style="fill:none;stroke:#000000;stroke-width:1;stroke-linecap:butt;stroke-linejoin:miter;stroke-miterlimit:4;stroke-dasharray:none;stroke-opacity:1"
       d="m 295.01783,234.5875 2.99998,-2 3.00001,2"
       id="path1436" />
    <rect
       style="fill:#ffffff;fill-rule:evenodd;stroke:#000000;stroke-width:1;stroke-linecap:round;stroke-linejoin:round;stroke-miterlimit:4;stroke-dasharray:none"
       id="rect2174-4-1"
       width="39.999996"
       height="34.762501"
       x="200.5"
       y="366.55203" />
    <text
       xml:space="preserve"
       style="font-style:normal;font-variant:normal;font-weight:normal;font-stretch:normal;font-size:21.1667px;line-height:1.25;font-family:sans-serif;-inkscape-font-specification:'sans-serif, Normal';font-variant-ligatures:normal;font-variant-caps:normal;font-variant-numeric:normal;font-variant-east-asian:normal;fill:#000000;fill-opacity:1;stroke:none;stroke-width:0.264583"
       x="212.98"
       y="391.60229"
       id="text3384-6-5"><tspan
         sodipodi:role="line"
         id="tspan3382-2-2"
         style="font-style:normal;font-variant:normal;font-weight:normal;font-stretch:normal;font-size:21.1667px;font-family:sans-serif;-inkscape-font-specification:'sans-serif, Normal';font-variant-ligatures:normal;font-variant-caps:normal;font-variant-numeric:normal;font-variant-east-asian:normal;stroke-width:0.264583"
         x="212.98"
         y="391.60229">k</tspan></text>
    <path
       style="fill:none;stroke:#000000;stroke-width:1;stroke-linecap:butt;stroke-linejoin:miter;stroke-opacity:1;stroke-miterlimit:4;stroke-dasharray:none;marker-end:url(#Arrow1Mend)"
       d="m 334.99999,249.99999 v 135 H 243"
       id="path1756" />
    <path
       style="fill:none;stroke:#000000;stroke-width:1;stroke-linecap:butt;stroke-linejoin:miter;stroke-opacity:1;stroke-miterlimit:4;stroke-dasharray:none;marker-end:url(#Arrow1Mend-2)"
       d="M 200.99999,384.99999 H 66.999997 V 54"
       id="path1875" />
    <text
       xml:space="preserve"
       style="font-style:normal;font-variant:normal;font-weight:normal;font-stretch:normal;font-size:15.875px;line-height:1.25;font-family:sans-serif;-inkscape-font-specification:'sans-serif, Normal';font-variant-ligatures:normal;font-variant-caps:normal;font-variant-numeric:normal;font-variant-east-asian:normal;fill:#000000;fill-opacity:1;stroke:none;stroke-width:0.264583"
       x="88.565979"
       y="33.941666"
       id="text2069"><tspan
         sodipodi:role="line"
         id="tspan2067"
         style="font-style:normal;font-variant:normal;font-weight:normal;font-stretch:normal;font-size:15.875px;font-family:sans-serif;-inkscape-font-specification:'sans-serif, Normal';font-variant-ligatures:normal;font-variant-caps:normal;font-variant-numeric:normal;font-variant-east-asian:normal;stroke-width:0.264583"
         x="88.565979"
         y="33.941666">u</tspan></text>
    <path
       style="fill:none;stroke:#000000;stroke-width:1;stroke-linecap:butt;stroke-linejoin:miter;stroke-opacity:1;stroke-miterlimit:4;stroke-dasharray:none;marker-end:url(#Arrow1Mend)"
       d="m 94.999999,39.999999 -2e-6,209.999991 H 124"
       id="path3945" />
  </g>
</svg>
