<?xml version="1.0" encoding="UTF-8" standalone="no"?>
<!-- Created with Inkscape (http://www.inkscape.org/) -->

<svg
   width="570mm"
   height="220mm"
   viewBox="0 0 570 220"
   version="1.1"
   id="svg5"
   inkscape:version="1.1 (c68e22c387, 2021-05-23)"
   sodipodi:docname="15 Sin Integrador en la Planta.svg"
   inkscape:export-filename="D:\Estudiar\Inteligencia Artificial\IPN_UPIITA_Apuntes\Control Sistemas Mecatronicos\Control de sistemas Mecatronicos Figuras\15 Sin Integrador en la Planta.png"
   inkscape:export-xdpi="63.728367"
   inkscape:export-ydpi="63.728367"
   xmlns:inkscape="http://www.inkscape.org/namespaces/inkscape"
   xmlns:sodipodi="http://sodipodi.sourceforge.net/DTD/sodipodi-0.dtd"
   xmlns="http://www.w3.org/2000/svg"
   xmlns:svg="http://www.w3.org/2000/svg">
  <sodipodi:namedview
     id="namedview7"
     pagecolor="#ffffff"
     bordercolor="#666666"
     borderopacity="1.0"
     inkscape:pageshadow="2"
     inkscape:pageopacity="0.0"
     inkscape:pagecheckerboard="0"
     inkscape:document-units="mm"
     showgrid="true"
     inkscape:zoom="0.33551235"
     inkscape:cx="1052.1222"
     inkscape:cy="433.66511"
     inkscape:window-width="1920"
     inkscape:window-height="1051"
     inkscape:window-x="-9"
     inkscape:window-y="-9"
     inkscape:window-maximized="1"
     inkscape:current-layer="layer1"
     width="410mm"
     height="300mm"
     showguides="true"
     inkscape:guide-bbox="true">
    <inkscape:grid
       type="xygrid"
       id="grid832"
       units="mm"
       spacingx="0.99999999"
       spacingy="0.99999999"
       dotted="false"
       visible="false" />
    <sodipodi:guide
       position="155,90"
       orientation="0,-1"
       id="guide612" />
    <sodipodi:guide
       position="180,35.000001"
       orientation="0,-1"
       id="guide614" />
    <sodipodi:guide
       position="74.999999,165"
       orientation="0,-1"
       id="guide3617" />
    <sodipodi:guide
       position="252,157"
       orientation="1,0"
       id="guide8413" />
    <sodipodi:guide
       position="66.999999,174"
       orientation="1,0"
       id="guide8575" />
    <sodipodi:guide
       position="509.99999,135"
       orientation="1,0"
       id="guide10924" />
  </sodipodi:namedview>
  <defs
     id="defs2">
    <inkscape:path-effect
       effect="spiro"
       id="path-effect919"
       is_visible="true"
       lpeversion="1" />
    <inkscape:path-effect
       effect="spiro"
       id="path-effect1088"
       is_visible="true"
       lpeversion="1" />
    <marker
       style="overflow:visible"
       id="marker40457"
       refX="0"
       refY="0"
       orient="auto"
       inkscape:stockid="Arrow1Mend"
       inkscape:isstock="true">
      <path
         transform="matrix(-0.4,0,0,-0.4,-4,0)"
         style="fill:context-stroke;fill-rule:evenodd;stroke:context-stroke;stroke-width:1pt"
         d="M 0,0 5,-5 -12.5,0 5,5 Z"
         id="path40455" />
    </marker>
    <inkscape:path-effect
       effect="spiro"
       id="path-effect33896"
       is_visible="true"
       lpeversion="1" />
    <marker
       style="overflow:visible"
       id="Arrow1Mend"
       refX="0"
       refY="0"
       orient="auto"
       inkscape:stockid="Arrow1Mend"
       inkscape:isstock="true">
      <path
         transform="matrix(-0.4,0,0,-0.4,-4,0)"
         style="fill:context-stroke;fill-rule:evenodd;stroke:context-stroke;stroke-width:1pt"
         d="M 0,0 5,-5 -12.5,0 5,5 Z"
         id="path18783" />
    </marker>
    <rect
       x="510.23621"
       y="94.48819"
       width="170.07874"
       height="151.18111"
       id="rect4149" />
    <rect
       x="510.23621"
       y="94.48819"
       width="170.07874"
       height="151.18111"
       id="rect4149-2" />
    <rect
       x="510.23621"
       y="94.48819"
       width="170.07874"
       height="151.18111"
       id="rect4149-2-6" />
    <rect
       x="510.23621"
       y="94.48819"
       width="170.07874"
       height="151.18111"
       id="rect9257" />
    <inkscape:path-effect
       effect="spiro"
       id="path-effect1345"
       is_visible="true"
       lpeversion="1" />
    <inkscape:path-effect
       effect="spiro"
       id="path-effect22003"
       is_visible="true"
       lpeversion="1" />
    <marker
       style="overflow:visible"
       id="Arrow1Mend-3"
       refX="0"
       refY="0"
       orient="auto"
       inkscape:stockid="Arrow1Mend"
       inkscape:isstock="true">
      <path
         transform="matrix(-0.4,0,0,-0.4,-4,0)"
         style="fill:context-stroke;fill-rule:evenodd;stroke:context-stroke;stroke-width:1pt"
         d="M 0,0 5,-5 -12.5,0 5,5 Z"
         id="path18783-4" />
    </marker>
    <marker
       style="overflow:visible"
       id="marker758"
       refX="0"
       refY="0"
       orient="auto"
       inkscape:stockid="Arrow1Mend"
       inkscape:isstock="true">
      <path
         transform="matrix(-0.4,0,0,-0.4,-4,0)"
         style="fill:context-stroke;fill-rule:evenodd;stroke:context-stroke;stroke-width:1pt"
         d="M 0,0 5,-5 -12.5,0 5,5 Z"
         id="path756" />
    </marker>
    <marker
       style="overflow:visible"
       id="marker762"
       refX="0"
       refY="0"
       orient="auto"
       inkscape:stockid="Arrow1Mend"
       inkscape:isstock="true">
      <path
         transform="matrix(-0.4,0,0,-0.4,-4,0)"
         style="fill:context-stroke;fill-rule:evenodd;stroke:context-stroke;stroke-width:1pt"
         d="M 0,0 5,-5 -12.5,0 5,5 Z"
         id="path760" />
    </marker>
    <marker
       style="overflow:visible"
       id="marker766"
       refX="0"
       refY="0"
       orient="auto"
       inkscape:stockid="Arrow1Mend"
       inkscape:isstock="true">
      <path
         transform="matrix(-0.4,0,0,-0.4,-4,0)"
         style="fill:context-stroke;fill-rule:evenodd;stroke:context-stroke;stroke-width:1pt"
         d="M 0,0 5,-5 -12.5,0 5,5 Z"
         id="path764" />
    </marker>
  </defs>
  <g
     inkscape:label="Capa 1"
     inkscape:groupmode="layer"
     id="layer1">
    <g
       id="g8776"
       transform="translate(-3.2520949,35.499999)">
      <path
         style="fill:none;fill-rule:evenodd;stroke:#0b0000;stroke-opacity:1"
         id="path8815"
         sodipodi:type="arc"
         sodipodi:cx="70.275002"
         sodipodi:cy="40.09166"
         sodipodi:rx="12.5"
         sodipodi:ry="12.5"
         sodipodi:start="4.7442412"
         sodipodi:end="4.7380453"
         sodipodi:open="true"
         sodipodi:arc-type="arc"
         d="M 70.673087,27.598 A 12.5,12.5 0 0 1 82.769263,40.470392 12.5,12.5 0 0 1 69.915623,52.586492 12.5,12.5 0 0 1 57.779627,39.751635 12.5,12.5 0 0 1 70.59567,27.595773" />
      <path
         style="fill:none;stroke:#000000;stroke-width:0.5;stroke-linecap:butt;stroke-linejoin:miter;stroke-miterlimit:4;stroke-dasharray:none;stroke-opacity:1"
         d="M 60.774991,32.237497 79.774957,48.237496"
         id="path9162" />
      <path
         style="fill:none;stroke:#000000;stroke-width:0.5;stroke-linecap:butt;stroke-linejoin:miter;stroke-miterlimit:4;stroke-dasharray:none;stroke-opacity:1"
         d="M 60.774991,48.237496 79.774957,32.237497"
         id="path9164" />
    </g>
    <text
       xml:space="preserve"
       style="font-style:normal;font-weight:normal;font-size:10.5833px;line-height:1.25;font-family:sans-serif;fill:#000000;fill-opacity:1;stroke:none;stroke-width:0.264583"
       x="43.414806"
       y="66.033218"
       id="text10446"><tspan
         sodipodi:role="line"
         id="tspan10444"
         style="stroke-width:0.264583"
         x="43.414806"
         y="66.033218">+</tspan></text>
    <text
       xml:space="preserve"
       style="font-style:normal;font-weight:normal;font-size:10.5833px;line-height:1.25;font-family:sans-serif;fill:#000000;fill-opacity:1;stroke:none;stroke-width:0.264583"
       x="48.880383"
       y="91.203072"
       id="text11836"><tspan
         sodipodi:role="line"
         id="tspan11834"
         style="stroke-width:0.264583"
         x="48.880383"
         y="91.203072">_</tspan></text>
    <text
       xml:space="preserve"
       style="font-style:normal;font-variant:normal;font-weight:normal;font-stretch:normal;font-size:15.875px;line-height:1.25;font-family:sans-serif;-inkscape-font-specification:'sans-serif, Normal';font-variant-ligatures:normal;font-variant-caps:normal;font-variant-numeric:normal;font-variant-east-asian:normal;fill:#000000;fill-opacity:1;stroke:none;stroke-width:0.264583"
       x="273.79517"
       y="69.378922"
       id="text15388"><tspan
         sodipodi:role="line"
         id="tspan15386"
         style="font-style:normal;font-variant:normal;font-weight:normal;font-stretch:normal;font-size:15.875px;font-family:sans-serif;-inkscape-font-specification:'sans-serif, Normal';font-variant-ligatures:normal;font-variant-caps:normal;font-variant-numeric:normal;font-variant-east-asian:normal;stroke-width:0.264583"
         x="273.79517"
         y="69.378922">u</tspan></text>
    <path
       style="fill:#000000;fill-rule:evenodd"
       id="path16138"
       sodipodi:type="arc"
       sodipodi:cx="93.870842"
       sodipodi:cy="52.078167"
       sodipodi:rx="1.25"
       sodipodi:ry="1.25"
       sodipodi:start="4.7442412"
       sodipodi:end="4.7380453"
       sodipodi:open="true"
       sodipodi:arc-type="arc"
       d="m 93.910651,50.828801 a 1.25,1.25 0 0 1 1.209617,1.287239 1.25,1.25 0 0 1 -1.285364,1.21161 1.25,1.25 0 0 1 -1.213599,-1.283485 1.25,1.25 0 0 1 1.281604,-1.215587" />
    <path
       style="fill:#000000;fill-opacity:1;stroke:#000000;stroke-width:0.125244px;stroke-linecap:butt;stroke-linejoin:miter;stroke-opacity:1"
       d="m 130.58343,56.029166 c 0.42415,-0.07046 0.81607,-0.296243 1.11222,-0.607945 0.29616,-0.311702 0.49895,-0.705974 0.61021,-1.121294 0.2225,-0.830641 0.0836,-1.717353 -0.16209,-2.541427 -0.14292,-0.479338 -0.32273,-0.950682 -0.57981,-1.379753 -0.35757,-0.596796 -0.88446,-1.116805 -1.54329,-1.340332 -0.43415,-0.147298 -0.90778,-0.159692 -1.35818,-0.07414 -0.45041,0.08555 -0.87895,0.266273 -1.27649,0.494635 -0.79595,0.457232 -1.47669,1.110222 -1.97813,1.879093 -0.35977,0.551649 -0.6269,1.158446 -0.86118,1.773969 -0.43222,1.13559 -0.75765,2.309679 -1.02317,3.495375 -0.24327,1.086331 -0.43668,2.183473 -0.59685,3.285127 -0.18836,1.295569 -0.33083,2.597679 -0.43485,3.902731 -0.13835,1.735855 -0.20866,3.476323 -0.28049,5.216201 -0.0597,1.445355 -0.1204,2.890762 -0.15436,4.336949 -0.0408,1.738644 -0.0429,3.477984 -0.0767,5.21678 -0.0283,1.45887 -0.0789,2.917205 -0.11934,4.375791 -0.0507,1.831346 -0.0854,3.663535 -0.18758,5.492731 -0.10124,1.811839 -0.26867,3.619225 -0.42632,5.427029 -0.0921,1.056087 -0.18347,2.125115 -0.52863,3.127444 -0.13079,0.37979 -0.29711,0.746968 -0.41781,1.130082 -0.0413,0.131073 -0.0789,0.267249 -0.16204,0.376651 -0.0416,0.0547 -0.0946,0.101725 -0.15707,0.130249 -0.0625,0.02852 -0.13493,0.03759 -0.201,0.01872 -0.0748,-0.02138 -0.13653,-0.0767 -0.1796,-0.141542 -0.0431,-0.06484 -0.0695,-0.139117 -0.0932,-0.213251 -0.11591,-0.362067 -0.17663,-0.739455 -0.22169,-1.116942 -0.0394,-0.329926 -0.0673,-0.662464 -0.14494,-0.985538 -0.0844,-0.351415 -0.22647,-0.686399 -0.3837,-1.011824 -0.13445,-0.278274 -0.29013,-0.56206 -0.54568,-0.735864 -0.14402,-0.09795 -0.31349,-0.155411 -0.48618,-0.178079 -0.17268,-0.02267 -0.3487,-0.01137 -0.51995,0.02039 -0.44948,0.08337 -0.8715,0.31134 -1.18518,0.643886 -0.38161,0.404553 -0.59209,0.942777 -0.71623,1.48488 -0.25081,1.09523 -0.16821,2.293297 0.3837,3.271982 0.44139,0.782708 1.19033,1.403698 2.0634,1.616288 0.82413,0.20067 1.71954,0.0287 2.4471,-0.40736 0.81176,-0.48649 1.40537,-1.268179 1.87582,-2.089342 0.75176,-1.312183 1.23677,-2.761873 1.59444,-4.23124 0.37039,-1.521657 0.6087,-3.072367 0.81002,-4.625461 0.25975,-2.00386 0.4587,-4.015596 0.59685,-6.031493 0.17805,-2.598081 0.25507,-5.201989 0.31548,-7.805463 0.0513,-2.211758 0.0907,-4.42379 0.11933,-6.635957 0.0355,-2.742931 0.0546,-5.487379 0.21315,-8.225957 0.0986,-1.702734 0.25091,-3.401978 0.42633,-5.098517 0.11063,-1.06995 0.23407,-2.153967 0.63096,-3.153722 0.13736,-0.346014 0.3072,-0.680147 0.52011,-0.985538 0.0406,-0.05822 0.0835,-0.116144 0.13935,-0.159881 0.028,-0.02187 0.059,-0.03999 0.0926,-0.05153 0.0336,-0.01154 0.0696,-0.01638 0.10485,-0.01198 0.0388,0.0048 0.0759,0.02085 0.10755,0.04382 0.0317,0.02297 0.0581,0.05274 0.0793,0.08561 0.0424,0.06575 0.0638,0.142614 0.0817,0.218792 0.0856,0.364499 0.10341,0.741279 0.16627,1.110373 0.0598,0.351384 0.16034,0.694757 0.27711,1.03153 0.17911,0.516542 0.41221,1.040424 0.83559,1.386323 0.38471,0.314305 0.90825,0.449345 1.39831,0.367935 z"
       id="path1343"
       inkscape:path-effect="#path-effect1345"
       inkscape:original-d="m 130.58343,56.029166 c 0.46621,0.122489 1.04012,-2.846955 1.56034,-4.270666 0.52021,-1.42371 -0.38664,-0.91968 -0.57981,-1.379753 -0.19316,-0.460074 -1.02895,-0.893399 -1.54329,-1.340332 -0.51432,-0.446933 -1.75654,0.280486 -2.63467,0.420496 -0.87812,0.14001 -1.31886,1.252884 -1.97813,1.879093 -0.65929,0.626209 -0.57422,1.182801 -0.86118,1.773969 -0.28696,0.591167 -0.68222,2.330405 -1.02317,3.495375 -0.34095,1.164969 -0.398,2.19024 -0.59685,3.285127 -0.19885,1.094887 -0.29,2.601977 -0.43485,3.902731 -0.1448,1.300755 -0.1871,3.477623 -0.28049,5.216201 -0.0934,1.738577 -0.10305,2.891454 -0.15436,4.336949 -0.0514,1.445493 -0.0512,3.478008 -0.0767,5.21678 -0.0255,1.738773 -0.0797,2.91735 -0.11934,4.375791 -0.0397,1.458439 -0.1251,3.661976 -0.18758,5.492731 -0.0625,1.830757 -0.28431,3.618178 -0.42632,5.427029 -0.14199,1.808856 -0.35252,2.085115 -0.52863,3.127444 -0.17613,1.042323 -0.27864,0.753541 -0.41781,1.130082 -0.13917,0.376541 -0.34685,0.350573 -0.52011,0.525622 -0.17327,0.175048 -0.18201,-0.236376 -0.27285,-0.354793 -0.0909,-0.118422 -0.14791,-0.744473 -0.22169,-1.116942 -0.0737,-0.372475 -0.0967,-0.656873 -0.14494,-0.985538 -0.0483,-0.328672 -0.2559,-0.674391 -0.3837,-1.011824 -0.12777,-0.337427 -0.36389,-0.490422 -0.54568,-0.735864 -0.1818,-0.245449 -0.67085,-0.104972 -1.00613,-0.15769 -0.33527,-0.05271 -0.79021,0.429412 -1.18518,0.643886 -0.39496,0.214474 -0.47758,0.990075 -0.71623,1.48488 -0.23863,0.4948 0.25569,2.181478 0.3837,3.271982 0.12807,1.090518 1.3755,1.077678 2.0634,1.616288 0.68791,0.5386 1.6313,-0.27142 2.4471,-0.40736 0.8158,-0.13594 1.25044,-1.392738 1.87582,-2.089342 0.62538,-0.696603 1.06287,-2.820668 1.59444,-4.23124 0.53159,-1.410573 0.53991,-3.083483 0.81002,-4.625461 0.2701,-1.541975 0.3978,-4.020839 0.59685,-6.031493 0.19905,-2.010653 0.21021,-5.203485 0.31548,-7.805463 0.10527,-2.601976 0.0795,-4.423816 0.11933,-6.635957 0.0398,-2.212141 0.14198,-5.483815 0.21315,-8.225957 0.0712,-2.742141 0.28412,-3.398856 0.42633,-5.098517 0.14228,-1.699661 0.42054,-2.102326 0.63096,-3.153722 0.21041,-1.051396 0.34664,-0.65687 0.52011,-0.985538 0.17346,-0.328668 0.22444,-0.14877 0.3368,-0.223389 0.11237,-0.07462 0.17895,0.232305 0.26858,0.348224 0.0896,0.115918 0.11075,0.740404 0.16627,1.110373 0.0555,0.369969 0.18464,0.687842 0.27711,1.03153 0.0925,0.343687 0.55697,0.924371 0.83559,1.386323 0.2786,0.461953 0.9321,0.245445 1.39831,0.367935 z" />
    <rect
       style="fill:none;fill-rule:evenodd;stroke:#000000;stroke-width:1;stroke-linecap:round;stroke-linejoin:round;stroke-miterlimit:4;stroke-dasharray:none"
       id="rect4560"
       width="25.000002"
       height="59.999996"
       x="111.64162"
       y="45.5" />
    <rect
       style="fill:#ffffff;fill-rule:evenodd;stroke:#000000;stroke-width:1;stroke-linecap:round;stroke-linejoin:round;stroke-miterlimit:4;stroke-dasharray:none"
       id="rect2174-9"
       width="39.999996"
       height="34.762501"
       x="168.18629"
       y="58.512501" />
    <text
       xml:space="preserve"
       style="font-style:normal;font-variant:normal;font-weight:normal;font-stretch:normal;font-size:21.1667px;line-height:1.25;font-family:sans-serif;-inkscape-font-specification:'sans-serif, Normal';font-variant-ligatures:normal;font-variant-caps:normal;font-variant-numeric:normal;font-variant-east-asian:normal;fill:#000000;fill-opacity:1;stroke:none;stroke-width:0.264583"
       x="180.66626"
       y="83.562721"
       id="text3384-3"><tspan
         sodipodi:role="line"
         id="tspan3382-3"
         style="font-style:normal;font-variant:normal;font-weight:normal;font-stretch:normal;font-size:21.1667px;font-family:sans-serif;-inkscape-font-specification:'sans-serif, Normal';font-variant-ligatures:normal;font-variant-caps:normal;font-variant-numeric:normal;font-variant-east-asian:normal;stroke-width:0.264583"
         x="180.66626"
         y="83.562721">k<tspan
   style="font-style:normal;font-variant:normal;font-weight:normal;font-stretch:normal;font-size:14.1111px;font-family:sans-serif;-inkscape-font-specification:'sans-serif, Normal';font-variant-ligatures:normal;font-variant-caps:normal;font-variant-numeric:normal;font-variant-east-asian:normal"
   id="tspan3205">I</tspan></tspan></text>
    <path
       style="fill:none;fill-rule:evenodd;stroke:#0b0000;stroke-opacity:1"
       id="path8759"
       sodipodi:type="arc"
       sodipodi:cx="252.02287"
       sodipodi:cy="75.59166"
       sodipodi:rx="12.5"
       sodipodi:ry="12.5"
       sodipodi:start="4.7442412"
       sodipodi:end="4.7380453"
       sodipodi:open="true"
       sodipodi:arc-type="arc"
       d="m 252.42096,63.098 a 12.5,12.5 0 0 1 12.09617,12.872392 12.5,12.5 0 0 1 -12.85364,12.1161 12.5,12.5 0 0 1 -12.13599,-12.834857 12.5,12.5 0 0 1 12.81604,-12.155862" />
    <path
       style="fill:none;stroke:#000000;stroke-width:0.5;stroke-linecap:butt;stroke-linejoin:miter;stroke-miterlimit:4;stroke-dasharray:none;stroke-opacity:1"
       d="m 242.5229,67.737496 18.99996,15.999999"
       id="path8761" />
    <path
       style="fill:none;stroke:#000000;stroke-width:0.5;stroke-linecap:butt;stroke-linejoin:miter;stroke-miterlimit:4;stroke-dasharray:none;stroke-opacity:1"
       d="M 242.5229,83.737495 261.52286,67.737496"
       id="path8763" />
    <text
       xml:space="preserve"
       style="font-style:normal;font-weight:normal;font-size:10.5833px;line-height:1.25;font-family:sans-serif;fill:#000000;fill-opacity:1;stroke:none;stroke-width:0.264583"
       x="228.41476"
       y="66.033218"
       id="text8767"><tspan
         sodipodi:role="line"
         id="tspan8765"
         style="stroke-width:0.264583"
         x="228.41476"
         y="66.033218">+</tspan></text>
    <path
       style="fill:none;stroke:#000000;stroke-width:1;stroke-linecap:butt;stroke-linejoin:miter;stroke-miterlimit:4;stroke-dasharray:none;stroke-opacity:1;marker-end:url(#Arrow1Mend)"
       d="M 3.5,75.499998 H 50.499998"
       id="path8816" />
    <path
       style="fill:none;stroke:#000000;stroke-width:1;stroke-linecap:butt;stroke-linejoin:miter;stroke-miterlimit:4;stroke-dasharray:none;stroke-opacity:1;marker-end:url(#Arrow1Mend)"
       d="M 79.974994,75.499998 H 108.58668"
       id="path8955" />
    <path
       style="fill:none;stroke:#000000;stroke-width:1;stroke-linecap:butt;stroke-linejoin:miter;stroke-miterlimit:4;stroke-dasharray:none;stroke-opacity:1;marker-end:url(#Arrow1Mend)"
       d="m 207.96672,75.499998 h 28.61169"
       id="path9095" />
    <path
       style="fill:none;stroke:#000000;stroke-width:1;stroke-linecap:butt;stroke-linejoin:miter;stroke-miterlimit:4;stroke-dasharray:none;stroke-opacity:1;marker-end:url(#Arrow1Mend)"
       d="m 264.84593,75.499998 h 28.61169"
       id="path9097" />
    <text
       xml:space="preserve"
       style="font-style:normal;font-variant:normal;font-weight:normal;font-stretch:normal;font-size:15.875px;line-height:1.25;font-family:sans-serif;-inkscape-font-specification:'sans-serif, Normal';font-variant-ligatures:normal;font-variant-caps:normal;font-variant-numeric:normal;font-variant-east-asian:normal;fill:#000000;fill-opacity:1;stroke:none;stroke-width:0.264583"
       x="18.970831"
       y="69.441666"
       id="text11230"><tspan
         sodipodi:role="line"
         id="tspan11228"
         style="font-style:normal;font-variant:normal;font-weight:normal;font-stretch:normal;font-size:15.875px;font-family:sans-serif;-inkscape-font-specification:'sans-serif, Normal';font-variant-ligatures:normal;font-variant-caps:normal;font-variant-numeric:normal;font-variant-east-asian:normal;stroke-width:0.264583"
         x="18.970831"
         y="69.441666">r</tspan></text>
    <path
       style="fill:#000000;stroke:#000000;stroke-width:0.0264508px;stroke-linecap:butt;stroke-linejoin:miter;stroke-opacity:1"
       d="m 93.245419,56.077857 c -0.08641,0.0018 -0.17254,0.01636 -0.25476,0.043 -0.132764,0.04302 -0.25877,0.121558 -0.33252,0.24004 -0.06139,0.09862 -0.08249,0.218323 -0.0777,0.33439 0.005,0.120307 0.03872,0.2433 0.11746,0.3344 0.06776,0.0784 0.162539,0.127017 0.24814,0.18541 0.06263,0.04272 0.121714,0.09171 0.190339,0.12394 0.03431,0.01612 0.07095,0.02789 0.108678,0.03157 0.03773,0.0037 0.07664,-9.94e-4 0.111253,-0.01645 0.03582,-0.01599 0.06581,-0.04282 0.09171,-0.07229 0.02589,-0.02947 0.04823,-0.06187 0.07293,-0.09234 0.08061,-0.09943 0.184827,-0.176535 0.28782,-0.25254 0.220688,-0.162858 0.441681,-0.326117 0.67661,-0.46766 0.275158,-0.165782 0.57811,-0.303532 0.89902,-0.3181 0.08526,-0.0039 0.173096,0.0016 0.251162,0.03605 0.03903,0.01725 0.07514,0.04176 0.103656,0.0735 0.02852,0.03175 0.04925,0.07088 0.05694,0.112859 0.0081,0.04408 0.0017,0.08949 -0.007,0.13344 -0.02594,0.13035 -0.07395,0.257697 -0.15207,0.36522 -0.121313,0.16697 -0.305243,0.274962 -0.48194,0.38161 -0.142948,0.08628 -0.285003,0.174949 -0.4365,0.245139 -0.151498,0.07019 -0.313817,0.121816 -0.48061,0.129441 -0.127233,0.0058 -0.254198,-0.01399 -0.38153,-0.01689 -0.127333,-0.0029 -0.260374,0.01302 -0.36713,0.08249 -0.05988,0.03897 -0.108432,0.0928 -0.15441,0.14749 -0.158173,0.188133 -0.296805,0.398302 -0.36497,0.63445 -0.04418,0.153062 -0.05774,0.313607 -0.0562,0.47291 0.0015,0.153171 0.01784,0.310282 0.0866,0.44716 0.0599,0.119239 0.156212,0.216488 0.22225,0.33244 0.04261,0.07482 0.07274,0.157567 0.127238,0.224225 0.02725,0.03333 0.06072,0.0623 0.100075,0.07976 0.03935,0.01746 0.08492,0.02271 0.125967,0.0097 0.02334,-0.0074 0.04448,-0.02027 0.0655,-0.0328 0.239833,-0.142985 0.497622,-0.255634 0.76504,-0.33596 0.201539,-0.06054 0.408288,-0.10273 0.61647,-0.13344 0.320103,-0.04722 0.646089,-0.06736 0.96741,-0.0293 0.07001,0.0083 0.140348,0.01951 0.205989,0.04521 0.06564,0.02571 0.126861,0.06706 0.165991,0.125698 0.04471,0.067 0.05716,0.153112 0.0398,0.23177 -0.02115,0.09585 -0.08325,0.178429 -0.15675,0.24348 -0.119926,0.106144 -0.27105,0.171791 -0.4258,0.21304 -0.253091,0.06746 -0.51776,0.07331 -0.77907,0.0913 -0.320409,0.02206 -0.650013,0.06197 -0.95688,-0.0328 -0.06657,-0.02056 -0.13137,-0.04732 -0.199437,-0.06218 -0.06807,-0.01486 -0.141401,-0.01705 -0.205313,0.01068 -0.03543,0.01537 -0.06639,0.0392 -0.0977,0.0618 -0.07017,0.05066 -0.143862,0.09621 -0.21578,0.14435 -0.114212,0.07645 -0.224057,0.159533 -0.32755,0.24997 -0.120175,0.105014 -0.231489,0.219663 -0.34395,0.3329 -0.111665,0.112435 -0.224829,0.223859 -0.32519,0.34649 -0.10095,0.12335 -0.188548,0.257699 -0.2597,0.40033 -0.07331,0.146954 -0.129028,0.302372 -0.17078,0.4612 -0.03674,0.139743 -0.06275,0.282324 -0.0772,0.42609 -0.01204,0.119741 -0.01606,0.240403 -0.009,0.36054 0.0087,0.147969 0.0346,0.296118 0.0912,0.43311 0.07158,0.173255 0.19046,0.32397 0.32754,0.45184 0.129201,0.12052 0.276181,0.222889 0.43749,0.29498 0.227131,0.101508 0.477154,0.141006 0.72527,0.1592 0.278631,0.02043 0.558597,0.01525 0.83756,0 0.287276,-0.0157 0.573864,-0.04204 0.86095,-0.0609 0.119164,-0.0078 0.23866,-0.01437 0.35796,-0.009 0.12736,0.0057 0.254298,0.02511 0.37666,0.0609 0.121094,0.03542 0.237991,0.08718 0.34158,0.1592 0.08817,0.0613 0.165887,0.136656 0.2363,0.21773 0.09875,0.113699 0.183908,0.239425 0.25033,0.37458 0.103384,0.210363 0.160352,0.441393 0.18716,0.67425 0.02136,0.185549 0.02399,0.37283 0.0187,0.55953 -0.0057,0.201338 -0.02076,0.403481 -0.0678,0.59933 -0.05028,0.209346 -0.137103,0.409825 -0.25501,0.58997 -0.09782,0.149448 -0.216557,0.284539 -0.34625,0.40735 -0.129215,0.122359 -0.270493,0.233504 -0.42814,0.31606 -0.200607,0.105054 -0.42365,0.161645 -0.64806,0.19197 -0.281662,0.03806 -0.579825,0.03342 -0.83522,-0.0913 -0.07314,-0.03572 -0.141985,-0.08109 -0.200288,-0.13789 -0.0583,-0.0568 -0.105904,-0.125285 -0.134272,-0.20158 -0.04657,-0.125241 -0.03809,-0.27 0.0234,-0.38863 0.05347,-0.103158 0.147789,-0.186439 0.25969,-0.21772 0.04778,-0.01336 0.0978,-0.01732 0.1474,-0.0164 0.12512,0.0023 0.247978,0.03518 0.36497,0.0796 0.117766,0.04472 0.231433,0.101439 0.35327,0.13344 0.169299,0.04447 0.35,0.03916 0.51938,-0.005 0.1602,-0.04176 0.312168,-0.118609 0.43516,-0.22943 0.174852,-0.157548 0.285129,-0.378589 0.33456,-0.6087 0.05187,-0.241475 0.03852,-0.500683 -0.0632,-0.72575 -0.07221,-0.159776 -0.19208,-0.302718 -0.35094,-0.37692 -0.168257,-0.07859 -0.361854,-0.07431 -0.54745,-0.0679 -0.205905,0.0071 -0.411786,0.01493 -0.61764,0.0234 -0.212064,0.0087 -0.424137,0.01813 -0.63636,0.0211 -0.35349,0.005 -0.709379,-0.0082 -1.05514,-0.0819 -0.310151,-0.0661 -0.612154,-0.182042 -0.87266,-0.36287 -0.201542,-0.139899 -0.375743,-0.316738 -0.5264,-0.51037 -0.127387,-0.163724 -0.238993,-0.340684 -0.32051,-0.53144 -0.108403,-0.253669 -0.162043,-0.528092 -0.18483,-0.80301 -0.01776,-0.214328 -0.01715,-0.430691 0.0117,-0.64381 0.03104,-0.229359 0.0946,-0.45359 0.1778,-0.66957 0.06846,-0.177728 0.15044,-0.350555 0.25034,-0.51271 0.150337,-0.244022 0.340415,-0.462314 0.55213,-0.65551 0.164025,-0.149677 0.34094,-0.284487 0.51002,-0.42843 0.117237,-0.09981 0.23599,-0.207016 0.38369,-0.2505 0.0083,-0.0024 0.01685,-0.0048 0.0241,-0.0095 0.0036,-0.0024 0.0069,-0.0054 0.0093,-0.009 0.0024,-0.0036 0.0039,-0.0079 0.0039,-0.01222 2.2e-5,-0.0036 -9.54e-4,-0.0071 -0.0026,-0.01035 -0.0016,-0.0032 -0.0039,-0.0061 -0.0064,-0.0086 -0.0051,-0.005 -0.01142,-0.0086 -0.01748,-0.0125 -0.04875,-0.03102 -0.08437,-0.07831 -0.12159,-0.12251 -0.09027,-0.107189 -0.195716,-0.201431 -0.27958,-0.3137 -0.08466,-0.113329 -0.145611,-0.242941 -0.1919,-0.37661 -0.06251,-0.180525 -0.09925,-0.372526 -0.0827,-0.56285 0.01003,-0.115379 0.03945,-0.228395 0.0777,-0.33771 0.05686,-0.162483 0.133211,-0.317501 0.21589,-0.46849 0.04861,-0.08877 0.100483,-0.177615 0.1737,-0.24748 0.0452,-0.04313 0.09887,-0.0795 0.13069,-0.13327 0.0023,-0.004 0.0046,-0.0081 0.0055,-0.01258 4.59e-4,-0.0023 5.76e-4,-0.0046 1.95e-4,-0.0069 -3.81e-4,-0.0023 -0.0013,-0.0045 -0.0027,-0.0063 -0.0018,-0.0023 -0.0045,-0.0039 -0.0074,-0.0048 -0.0029,-8.56e-4 -0.0059,-0.001 -0.0089,-7.9e-4 -0.0059,4.28e-4 -0.01172,0.0023 -0.01767,0.0026 -0.0099,5.23e-4 -0.01956,-0.0032 -0.02823,-0.008 -0.0087,-0.0048 -0.01671,-0.01073 -0.02557,-0.01517 -0.01495,-0.0075 -0.03166,-0.01052 -0.048,-0.0141 -0.07824,-0.01713 -0.1526,-0.04854 -0.22499,-0.0828 -0.08391,-0.03972 -0.166103,-0.08363 -0.24236,-0.13658 -0.09929,-0.06895 -0.189,-0.154246 -0.25063,-0.25824 -0.04353,-0.07346 -0.0723,-0.154844 -0.0935,-0.23756 -0.01553,-0.06058 -0.02715,-0.122257 -0.0323,-0.18458 -0.0079,-0.09572 -4.8e-4,-0.192532 0.0199,-0.28639 0.02489,-0.114641 0.0705,-0.227246 0.14888,-0.31453 0.07116,-0.07924 0.165721,-0.133862 0.26304,-0.17713 0.08406,-0.03737 0.171258,-0.06723 0.2589,-0.0952 0.07402,-0.02362 0.149772,-0.04614 0.22747,-0.0463 0.06165,-1.29e-4 0.123941,0.01382 0.18445,0.002 0.0083,-0.0016 0.01662,-0.0037 0.02506,-0.0034 0.0042,1.58e-4 0.0085,9.38e-4 0.01233,0.0026 0.0039,0.0017 0.0074,0.0043 0.0098,0.0078 0.0026,0.0037 0.0039,0.0083 0.0045,0.01281 5.57e-4,0.0045 4.43e-4,0.0091 5.47e-4,0.01369 4.74e-4,0.02084 0.0055,0.04131 0.007,0.0621 0.0013,0.01763 7.7e-5,0.03533 0,0.053 -1.07e-4,0.02461 0.002,0.04942 -0.002,0.0737 -0.0026,0.01556 -0.0076,0.03072 -0.0149,0.0447"
       id="path22001"
       inkscape:path-effect="#path-effect22003"
       inkscape:original-d="m 93.245419,56.077857 c -0.002,0.014 -0.16981,0.0287 -0.25476,0.043 -0.0849,0.0143 -0.22165,0.16005 -0.33252,0.24004 -0.11086,0.08 -0.0518,0.22295 -0.0777,0.33439 -0.0259,0.11144 0.0783,0.22296 0.11746,0.3344 0.0391,0.11144 0.16545,0.12363 0.24814,0.18541 0.0827,0.0618 0.27354,0.0927 0.41027,0.13906 0.13673,0.0463 0.10978,-0.10973 0.16464,-0.16463 0.0548,-0.0549 0.1919,-0.16834 0.28782,-0.25254 0.0959,-0.0842 0.4511,-0.31175 0.67661,-0.46766 0.22551,-0.15592 0.59938,-0.21204 0.89902,-0.3181 0.29965,-0.10606 0.27454,0.1483 0.41176,0.22241 0.13723,0.0741 -0.005,0.089 -0.007,0.13344 -0.002,0.0445 -0.10135,0.24351 -0.15207,0.36522 -0.0507,0.12171 -0.32127,0.25443 -0.48194,0.38161 -0.16068,0.12717 -0.61138,0.24974 -0.91711,0.37458 -0.30573,0.12483 -0.49908,0.0437 -0.74866,0.0656 -0.24958,0.0218 -0.10291,0.0983 -0.15441,0.14749 -0.0515,0.0491 -0.24328,0.42299 -0.36497,0.63445 -0.12168,0.21146 -0.0374,0.3153 -0.0562,0.47291 -0.0187,0.15761 0.0577,0.29813 0.0866,0.44716 0.0288,0.14902 0.14819,0.22165 0.22225,0.33244 0.0741,0.11079 0.23555,0.20917 0.35328,0.31371 0.11773,0.10455 0.0437,-0.0218 0.0655,-0.0328 0.0218,-0.011 0.51005,-0.22395 0.76504,-0.33596 0.25498,-0.11201 0.41101,-0.0889 0.61647,-0.13344 0.20546,-0.0445 0.64496,-0.0195 0.96741,-0.0293 0.32244,-0.01 0.24801,0.11396 0.37198,0.17091 0.12397,0.0569 0.0266,0.15454 0.0398,0.23177 0.0132,0.0772 -0.10448,0.16234 -0.15675,0.24348 -0.0523,0.0811 -0.28384,0.14205 -0.4258,0.21304 -0.14196,0.071 -0.51936,0.0609 -0.77907,0.0913 -0.25972,0.0304 -0.6379,-0.0218 -0.95688,-0.0328 -0.31899,-0.011 -0.2698,-0.0343 -0.40475,-0.0515 -0.13494,-0.0172 -0.0651,0.0412 -0.0977,0.0618 -0.0326,0.0206 -0.14383,0.0963 -0.21578,0.14435 -0.072,0.0481 -0.21835,0.16667 -0.32755,0.24997 -0.10922,0.0833 -0.22927,0.22196 -0.34395,0.3329 -0.11467,0.11094 -0.21677,0.23102 -0.32519,0.34649 -0.10843,0.11547 -0.17311,0.26691 -0.2597,0.40033 -0.0866,0.13342 -0.11383,0.3075 -0.17078,0.4612 -0.057,0.15371 -0.0515,0.28409 -0.0772,0.42609 -0.0257,0.142 -0.006,0.24038 -0.009,0.36054 -0.003,0.12015 0.0609,0.28876 0.0912,0.43311 0.0304,0.14434 0.21839,0.30125 0.32754,0.45184 0.10915,0.15058 0.29169,0.19668 0.43749,0.29498 0.14581,0.0983 0.48354,0.10616 0.72527,0.1592 0.24173,0.053 0.5584,2e-5 0.83756,0 0.27916,-3e-5 0.57399,-0.0406 0.86095,-0.0609 0.28696,-0.0203 0.23867,-0.006 0.35796,-0.009 0.11929,-0.003 0.25114,0.0406 0.37666,0.0609 0.12553,0.0203 0.22775,0.10616 0.34158,0.1592 0.11383,0.053 0.15756,0.14518 0.2363,0.21773 0.0787,0.0726 0.16691,0.24974 0.25033,0.37458 0.0834,0.12483 0.1248,0.44952 0.18716,0.67425 0.0624,0.22472 0.0125,0.37304 0.0187,0.55953 0.006,0.18648 -0.0452,0.39958 -0.0678,0.59933 -0.0226,0.19975 -0.16998,0.39334 -0.25501,0.58997 -0.085,0.19662 -0.23081,0.27159 -0.34625,0.40735 -0.11545,0.13576 -0.28541,0.21073 -0.42814,0.31606 -0.14274,0.10532 -0.43201,0.12801 -0.64806,0.19197 -0.21605,0.064 -0.55679,-0.0608 -0.83522,-0.0913 -0.27843,-0.0305 -0.22301,-0.22629 -0.33456,-0.33947 -0.11154,-0.11318 0.0156,-0.25906 0.0234,-0.38863 0.008,-0.12957 0.17316,-0.14512 0.25969,-0.21772 0.0865,-0.0726 0.0983,-0.0109 0.1474,-0.0164 0.0491,-0.005 0.24334,0.0531 0.36497,0.0796 0.12163,0.0265 0.23554,0.089 0.35327,0.13344 0.11773,0.0445 0.34628,-0.003 0.51938,-0.005 0.1731,-0.002 0.29013,-0.15293 0.43516,-0.22943 0.14503,-0.0765 0.22306,-0.40577 0.33456,-0.6087 0.11149,-0.20292 -0.0421,-0.48381 -0.0632,-0.72575 -0.0211,-0.24195 -0.23393,-0.25126 -0.35094,-0.37692 -0.117,-0.12567 -0.36494,-0.0452 -0.54745,-0.0679 -0.18251,-0.0226 -0.41174,0.0156 -0.61764,0.0234 -0.20591,0.008 -0.42422,0.0141 -0.63636,0.0211 -0.21215,0.007 -0.7034,-0.0546 -1.05514,-0.0819 -0.35174,-0.0273 -0.58174,-0.24189 -0.87266,-0.36287 -0.29091,-0.12099 -0.3509,-0.34022 -0.5264,-0.51037 -0.17549,-0.17015 -0.21365,-0.35427 -0.32051,-0.53144 -0.10687,-0.17717 -0.12319,-0.53531 -0.18483,-0.80301 -0.0616,-0.2677 0.008,-0.42918 0.0117,-0.64381 0.004,-0.21463 0.11856,-0.44635 0.1778,-0.66957 0.0592,-0.22321 0.16692,-0.34178 0.25034,-0.51271 0.0834,-0.17093 0.36811,-0.43698 0.55213,-0.65551 0.18402,-0.21854 0.34004,-0.2856 0.51002,-0.42843 0.16998,-0.14284 0.25582,-0.16698 0.38369,-0.2505 0.12787,-0.0835 0.0249,-0.0205 0.0373,-0.0307 0.0124,-0.0103 -0.0176,-0.0209 -0.0265,-0.0314 -0.009,-0.0105 -0.081,-0.0817 -0.12159,-0.12251 -0.0406,-0.0409 -0.18636,-0.20911 -0.27958,-0.3137 -0.0932,-0.1046 -0.12791,-0.25105 -0.1919,-0.37661 -0.064,-0.12557 -0.0551,-0.37521 -0.0827,-0.56285 -0.0276,-0.18764 0.0519,-0.22511 0.0777,-0.33771 0.0259,-0.1126 0.14395,-0.3123 0.21589,-0.46849 0.0719,-0.15619 0.11583,-0.16496 0.1737,-0.24748 0.0579,-0.0825 0.0872,-0.0888 0.13069,-0.13327 0.0435,-0.0444 0.002,-0.0171 0.003,-0.0257 10e-4,-0.009 -0.0226,-0.002 -0.0339,-0.003 -0.0113,-10e-4 -0.0358,-0.0154 -0.0538,-0.0232 -0.0179,-0.008 -0.032,-0.009 -0.048,-0.0141 -0.016,-0.005 -0.14997,-0.0552 -0.22499,-0.0828 -0.075,-0.0276 -0.16155,-0.091 -0.24236,-0.13658 -0.0808,-0.0456 -0.16706,-0.17213 -0.25063,-0.25824 -0.0836,-0.0861 -0.0623,-0.15835 -0.0935,-0.23756 -0.0312,-0.0792 -0.0215,-0.12303 -0.0323,-0.18458 -0.0108,-0.0616 0.0133,-0.1909 0.0199,-0.28639 0.007,-0.0955 0.0993,-0.20966 0.14888,-0.31453 0.0496,-0.10487 0.17539,-0.11806 0.26304,-0.17713 0.0876,-0.0591 0.17263,-0.0634 0.2589,-0.0952 0.0863,-0.0318 0.15167,-0.0309 0.22747,-0.0463 0.0758,-0.0155 0.123,0.002 0.18445,0.002 0.0615,8e-4 0.0315,0.005 0.0472,0.007 0.0157,0.002 0.003,0.0177 0.005,0.0265 0.002,0.009 0.005,0.0414 0.007,0.0621 0.002,0.0207 3e-5,0.0353 0,0.053 -2e-5,0.0176 -10e-4,0.0491 -0.002,0.0737 -5.3e-4,0.0245 -0.01,0.0298 -0.0149,0.0447" />
    <path
       style="fill:#000000;fill-rule:evenodd;stroke:#000000;stroke-width:0.100075;stroke-linecap:round;stroke-linejoin:round;stroke-opacity:1"
       d="m 94.649939,68.570467 c -0.37435,-0.0534 -0.67497,-0.30754 -0.67497,-0.57071 0,-0.22537 0.11405,-0.38308 0.32108,-0.44403 0.13192,-0.0388 0.26813,-0.0107 0.69735,0.14387 0.21566,0.0777 0.25769,0.0843 0.45552,0.072 0.38024,-0.0237 0.68692,-0.21068 0.851,-0.51874 0.12066,-0.22653 0.16423,-0.42618 0.15282,-0.70022 -0.008,-0.19587 -0.0229,-0.25947 -0.0934,-0.40282 -0.0494,-0.10032 -0.12919,-0.20915 -0.19441,-0.26502 -0.17776,-0.15226 -0.30035,-0.1744 -0.86646,-0.1565 -1.47006,0.0465 -1.95484,0.0212 -2.40868,-0.12567 -0.596,-0.19284 -1.1059,-0.64328 -1.38978,-1.22772 -0.44005,-0.90593 -0.2812,-2.12652 0.38607,-2.96654 0.25326,-0.31883 0.97264,-0.95093 1.18227,-1.03883 0.0618,-0.0259 0.11244,-0.0574 0.1125,-0.0699 5e-5,-0.0125 -0.0913,-0.11981 -0.20294,-0.23838 -0.25584,-0.27167 -0.33749,-0.40035 -0.42253,-0.66587 -0.0935,-0.29187 -0.0929,-0.5381 0.002,-0.8211 0.0968,-0.28881 0.25938,-0.58486 0.4004,-0.7293 0.0645,-0.066 0.11727,-0.13314 0.11727,-0.14909 0,-0.0292 -0.0648,-0.0597 -0.24119,-0.11377 -0.11967,-0.0367 -0.38299,-0.1936 -0.48256,-0.28761 -0.31258,-0.29514 -0.32702,-0.93015 -0.0272,-1.19426 0.16201,-0.14271 0.50661,-0.26737 0.73907,-0.26737 h 0.17066 v 0.11559 0.11559 l -0.11895,0.0163 c -0.18181,0.0249 -0.37264,0.13382 -0.45633,0.26037 -0.10343,0.15641 -0.11654,0.43369 -0.0285,0.60334 0.0884,0.17028 0.47257,0.43226 0.63396,0.43226 0.10377,0 0.12392,-0.0124 0.25955,-0.16031 0.2094,-0.22829 0.81729,-0.6641 1.18443,-0.84913 0.4348,-0.21913 0.8402,-0.26007 1.01012,-0.102 0.13218,0.12296 0.0173,0.51061 -0.21471,0.72464 -0.15574,0.14365 -0.72159,0.47677 -0.94228,0.55472 -0.15151,0.0535 -0.22715,0.0623 -0.54642,0.0633 -0.44169,10e-4 -0.52692,0.0298 -0.69632,0.23225 -0.28982,0.3464 -0.40575,0.64493 -0.40864,1.05234 -0.002,0.32907 0.0275,0.43692 0.18796,0.68088 0.0699,0.10626 0.15847,0.24817 0.1968,0.31537 0.0437,0.0767 0.10054,0.13497 0.15255,0.15653 0.0782,0.0324 0.0985,0.0265 0.3574,-0.10357 0.58586,-0.29433 1.18052,-0.43296 1.83431,-0.42765 0.40311,0.003 0.55989,0.0346 0.66493,0.13277 0.0658,0.0615 0.08,0.0956 0.08,0.19261 0,0.24129 -0.25576,0.44736 -0.66173,0.53318 -0.3602,0.0761 -1.27491,0.12459 -1.48226,0.0785 -0.0364,-0.008 -0.14188,-0.0373 -0.2344,-0.0649 -0.0925,-0.0276 -0.1961,-0.0502 -0.23019,-0.0502 -0.12879,0 -0.61894,0.36598 -1.02647,0.76642 -0.53407,0.52479 -0.69547,0.77636 -0.82541,1.28652 -0.12031,0.47235 -0.11105,0.95124 0.0241,1.24469 0.1269,0.27558 0.4307,0.57117 0.72488,0.70527 0.38931,0.17747 0.99887,0.2172 2.11971,0.13814 0.74321,-0.0524 0.95882,-0.0361 1.23577,0.0936 0.35365,0.1656 0.66642,0.57685 0.77804,1.02302 0.10091,0.40336 0.10869,1.06065 0.0172,1.45199 -0.14843,0.63474 -0.69796,1.24785 -1.28412,1.43269 -0.16988,0.0536 -0.61647,0.12866 -0.70351,0.11829 -0.0145,-0.002 -0.0979,-0.0133 -0.18528,-0.0258 z"
       id="path22159" />
    <path
       style="fill:#000000;fill-rule:evenodd;stroke:#000000;stroke-width:0.100075;stroke-linecap:round;stroke-linejoin:round;stroke-opacity:1"
       d="m 94.570529,68.589287 c -0.27567,-0.0672 -0.52799,-0.24893 -0.59674,-0.42987 -0.0793,-0.20859 0.0134,-0.47936 0.20024,-0.58525 0.1563,-0.0886 0.30479,-0.0782 0.69355,0.0483 0.31254,0.10175 0.35026,0.10819 0.57458,0.0981 0.47889,-0.0216 0.7743,-0.25119 0.9181,-0.71352 0.0711,-0.2286 0.068,-0.5819 -0.007,-0.78212 -0.0741,-0.19832 -0.25594,-0.38377 -0.4198,-0.42826 -0.087,-0.0236 -0.42171,-0.0304 -1.24396,-0.0251 -1.2384,0.008 -1.40064,-0.005 -1.81313,-0.14156 -0.3338,-0.1107 -0.59466,-0.26707 -0.8538,-0.5118 -0.51526,-0.48664 -0.76119,-1.02596 -0.79293,-1.73891 -0.0386,-0.86621 0.26313,-1.6409 0.88026,-2.26038 0.35881,-0.36017 0.67004,-0.61396 1.01374,-0.82665 0.005,-0.003 -0.0892,-0.11674 -0.20926,-0.25258 -0.35909,-0.40628 -0.51524,-0.83 -0.45048,-1.22237 0.0544,-0.32945 0.26245,-0.76961 0.47525,-1.00532 0.0525,-0.0581 0.0809,-0.11022 0.0671,-0.12293 -0.0132,-0.0121 -0.0848,-0.0418 -0.15912,-0.0659 -0.0743,-0.0241 -0.22917,-0.10603 -0.3441,-0.18204 -0.16128,-0.10667 -0.22832,-0.17073 -0.29384,-0.28079 -0.23104,-0.38814 -0.15759,-0.91416 0.15796,-1.13122 0.19787,-0.1361 0.40011,-0.20232 0.66144,-0.21656 l 0.23161,-0.0126 v 0.14526 0.14526 l -0.14981,0.0301 c -0.17469,0.0351 -0.35392,0.13273 -0.41504,0.22607 -0.0738,0.11276 -0.10235,0.29906 -0.0698,0.45596 0.0249,0.11969 0.0503,0.15974 0.17208,0.27116 0.15511,0.14186 0.38302,0.2689 0.48239,0.2689 0.0406,0 0.12875,-0.0626 0.25287,-0.17953 0.23887,-0.2251 0.43407,-0.37474 0.79841,-0.61207 0.56739,-0.36958 1.06226,-0.50115 1.34342,-0.35718 0.0921,0.0472 0.12651,0.11293 0.12651,0.24176 0,0.37828 -0.29911,0.68267 -1.02609,1.04419 l -0.27514,0.13683 -0.42411,0.0208 c -0.23326,0.0114 -0.46379,0.0339 -0.51228,0.0499 -0.16753,0.0553 -0.45045,0.44009 -0.5437,0.7394 -0.0688,0.22076 -0.0936,0.57863 -0.0535,0.7712 0.0301,0.14457 0.29956,0.6189 0.43128,0.7592 0.0784,0.0835 0.13612,0.077 0.38525,-0.0436 0.32074,-0.15521 0.67395,-0.28067 0.98599,-0.35023 0.2392,-0.0533 0.34985,-0.0619 0.79407,-0.0619 0.28388,0 0.54868,0.009 0.58845,0.0202 0.0398,0.0111 0.11421,0.0571 0.16543,0.10207 0.082,0.072 0.0931,0.0969 0.0931,0.2076 0,0.30587 -0.31902,0.52589 -0.88671,0.61153 -0.10191,0.0154 -0.42351,0.0342 -0.71467,0.0418 -0.50135,0.0131 -0.54265,0.0104 -0.78007,-0.0514 -0.17898,-0.0466 -0.26871,-0.0584 -0.31369,-0.0413 -0.31758,0.12083 -1.21204,0.94198 -1.4897,1.36761 -0.14287,0.219 -0.26326,0.55684 -0.31572,0.88602 -0.0461,0.2893 -0.0219,0.73549 0.0501,0.92297 0.12139,0.31608 0.50798,0.66897 0.86429,0.78894 0.34835,0.11729 0.91425,0.13322 2.37515,0.0669 0.4084,-0.0186 0.61183,0.009 0.83252,0.11338 0.36647,0.17309 0.67826,0.57924 0.80946,1.05445 0.0758,0.2746 0.0943,1.02619 0.0332,1.35205 -0.11538,0.61587 -0.55595,1.19835 -1.11271,1.47116 -0.35947,0.17613 -0.87394,0.25129 -1.19111,0.17401 z"
       id="path22329" />
    <rect
       style="fill:#ffffff;fill-rule:evenodd;stroke:#000000;stroke-width:1;stroke-linecap:round;stroke-linejoin:round;stroke-miterlimit:4;stroke-dasharray:none"
       id="rect2174-4-0"
       width="89.762505"
       height="52.116669"
       x="297.09158"
       y="42.825001" />
    <path
       style="fill:#000000;fill-opacity:1;stroke:#000000;stroke-width:0.062622px;stroke-linecap:butt;stroke-linejoin:miter;stroke-opacity:1"
       d="m 428.67913,50.23333 c 0.32062,-0.240457 0.56942,-0.57546 0.70696,-0.951892 0.13753,-0.376432 0.1633,-0.792924 0.0732,-1.183438 -0.0563,-0.244183 -0.15688,-0.477509 -0.28991,-0.68988 -0.18439,-0.294368 -0.44342,-0.556502 -0.77165,-0.67016 -0.21674,-0.07505 -0.45391,-0.0815 -0.6792,-0.03846 -0.22529,0.04304 -0.43944,0.134116 -0.63813,0.248696 -0.39756,0.229262 -0.73822,0.555241 -0.98907,0.93955 -0.17999,0.275755 -0.31349,0.579202 -0.43058,0.88698 -0.21603,0.567824 -0.3788,1.154848 -0.51158,1.74769 -0.12166,0.54316 -0.21835,1.091733 -0.29843,1.64256 -0.0942,0.647786 -0.16541,1.298843 -0.21742,1.95137 -0.0692,0.867927 -0.10433,1.738162 -0.14025,2.6081 -0.0298,0.722677 -0.0602,1.445381 -0.0772,2.168475 -0.0204,0.869322 -0.0214,1.738992 -0.0383,2.60839 -0.0142,0.729436 -0.0395,1.458603 -0.0597,2.187896 -0.0254,0.915673 -0.0427,1.831768 -0.0938,2.746366 -0.0506,0.905919 -0.13433,1.809613 -0.21316,2.713514 -0.046,0.528043 -0.0917,1.062556 -0.26432,1.563722 -0.0654,0.189895 -0.14855,0.373484 -0.2089,0.565041 -0.0206,0.06554 -0.0394,0.133626 -0.081,0.188327 -0.0208,0.02735 -0.0473,0.05086 -0.0785,0.06512 -0.0312,0.01426 -0.0675,0.01879 -0.1005,0.0094 -0.0374,-0.01069 -0.0683,-0.03835 -0.0898,-0.07077 -0.0215,-0.03242 -0.0347,-0.06956 -0.0466,-0.106625 -0.0579,-0.181034 -0.0883,-0.369729 -0.11084,-0.558471 -0.0197,-0.164964 -0.0337,-0.331233 -0.0725,-0.49277 -0.0422,-0.175705 -0.11324,-0.343198 -0.19185,-0.505911 -0.0672,-0.139138 -0.14507,-0.281032 -0.27284,-0.367933 -0.072,-0.04897 -0.15674,-0.0777 -0.24309,-0.08904 -0.0863,-0.01133 -0.17435,-0.0057 -0.25997,0.0102 -0.22474,0.04169 -0.43575,0.155671 -0.59259,0.321943 -0.19081,0.202276 -0.29605,0.471388 -0.35812,0.74244 -0.1254,0.547615 -0.0841,1.146649 0.19186,1.635991 0.2207,0.391349 0.59516,0.701844 1.03169,0.808143 0.41207,0.100341 0.85978,0.01434 1.22356,-0.203678 0.40588,-0.243247 0.70269,-0.63409 0.93791,-1.044672 0.37588,-0.656091 0.61839,-1.380937 0.79722,-2.11562 0.1852,-0.760829 0.30435,-1.536184 0.40501,-2.312731 0.12988,-1.00193 0.22935,-2.007798 0.29842,-3.015746 0.089,-1.299041 0.12753,-2.600995 0.15774,-3.902732 0.0257,-1.105879 0.0454,-2.211895 0.0597,-3.317979 0.0178,-1.371467 0.0273,-2.743692 0.10657,-4.112983 0.0493,-0.851365 0.12545,-1.700984 0.21316,-2.54925 0.0553,-0.534975 0.11704,-1.076983 0.31549,-1.57686 0.0687,-0.173006 0.1536,-0.340072 0.26005,-0.49277 0.0203,-0.02911 0.0417,-0.05807 0.0697,-0.07994 0.014,-0.01093 0.0295,-0.02 0.0463,-0.02576 0.0168,-0.0058 0.0348,-0.0082 0.0524,-0.006 0.0194,0.0024 0.0379,0.01043 0.0538,0.02191 0.0158,0.01148 0.0291,0.02637 0.0396,0.04281 0.0212,0.03288 0.0319,0.07131 0.0409,0.109401 0.0428,0.182247 0.0517,0.370631 0.0831,0.55518 0.0299,0.1757 0.0801,0.34741 0.13855,0.51577 0.0897,0.25819 0.20654,0.519743 0.4178,0.69316 0.19213,0.157717 0.45428,0.226696 0.69915,0.18397 z"
       id="path1343-8"
       inkscape:path-effect="#path-effect919"
       inkscape:original-d="m 428.67913,50.23333 c 0.2331,0.0612 0.52005,-1.42348 0.78017,-2.13533 0.26011,-0.71186 -0.19332,-0.45984 -0.28991,-0.68988 -0.0966,-0.23003 -0.51447,-0.4467 -0.77165,-0.67016 -0.25715,-0.22347 -0.87826,0.14024 -1.31733,0.21024 -0.43906,0.07 -0.65943,0.62645 -0.98907,0.93955 -0.32964,0.31311 -0.2871,0.5914 -0.43058,0.88698 -0.14348,0.29559 -0.34111,1.16521 -0.51158,1.74769 -0.17048,0.58249 -0.199,1.09512 -0.29843,1.64256 -0.0994,0.54745 -0.14501,1.30099 -0.21742,1.95137 -0.0724,0.650378 -0.0935,1.738811 -0.14025,2.6081 -0.0467,0.869289 -0.0515,1.445728 -0.0772,2.168475 -0.0257,0.722747 -0.0256,1.739004 -0.0383,2.60839 -0.0128,0.869387 -0.0398,1.458675 -0.0597,2.187896 -0.0198,0.729219 -0.0625,1.830988 -0.0938,2.746366 -0.0312,0.915378 -0.14216,1.809089 -0.21316,2.713514 -0.071,0.904428 -0.17626,1.042558 -0.26432,1.563722 -0.088,0.521161 -0.13931,0.376771 -0.2089,0.565041 -0.0695,0.188271 -0.17343,0.175287 -0.26006,0.262811 -0.0866,0.08752 -0.091,-0.118188 -0.13642,-0.177396 -0.0454,-0.05921 -0.0739,-0.372237 -0.11084,-0.558471 -0.0368,-0.186238 -0.0484,-0.328437 -0.0725,-0.49277 -0.0242,-0.164335 -0.12795,-0.337195 -0.19185,-0.505911 -0.0639,-0.168714 -0.18194,-0.245211 -0.27284,-0.367933 -0.0909,-0.122724 -0.33542,-0.05249 -0.50306,-0.07884 -0.16764,-0.02635 -0.3951,0.214706 -0.59259,0.321943 -0.19748,0.107237 -0.23879,0.495037 -0.35812,0.74244 -0.11931,0.2474 0.12785,1.090739 0.19186,1.635991 0.064,0.545256 0.68774,0.538839 1.03169,0.808143 0.34396,0.269302 0.81565,-0.135708 1.22356,-0.203678 0.40789,-0.06797 0.62522,-0.69637 0.93791,-1.044672 0.31269,-0.348302 0.53143,-1.410335 0.79722,-2.11562 0.26578,-0.705287 0.26995,-1.541742 0.40501,-2.312731 0.13504,-0.770988 0.1989,-2.01042 0.29842,-3.015746 0.0995,-1.005327 0.1051,-2.601743 0.15774,-3.902732 0.0526,-1.300988 0.0397,-2.211908 0.0597,-3.317979 0.0199,-1.10607 0.0709,-2.741907 0.10657,-4.112983 0.0356,-1.37107 0.14206,-1.69942 0.21316,-2.54925 0.0712,-0.84983 0.21028,-1.05117 0.31549,-1.57686 0.1052,-0.5257 0.17331,-0.32844 0.26005,-0.49277 0.0867,-0.16434 0.11222,-0.0744 0.1684,-0.1117 0.0562,-0.0373 0.0894,0.11615 0.13429,0.17412 0.0448,0.058 0.0554,0.3702 0.0831,0.55518 0.0277,0.18499 0.0923,0.34392 0.13855,0.51577 0.0462,0.17184 0.27848,0.46218 0.4178,0.69316 0.13929,0.23097 0.46605,0.12272 0.69915,0.18397 z" />
    <rect
       style="fill:none;fill-rule:evenodd;stroke:#000000;stroke-width:0.5;stroke-linecap:round;stroke-linejoin:round;stroke-miterlimit:4;stroke-dasharray:none"
       id="rect4560-0"
       width="12.5"
       height="30"
       x="419.2084"
       y="44.968761" />
    <text
       xml:space="preserve"
       style="font-style:normal;font-variant:normal;font-weight:normal;font-stretch:normal;font-size:15.875px;line-height:1.25;font-family:sans-serif;-inkscape-font-specification:'sans-serif, Normal';font-variant-ligatures:normal;font-variant-caps:normal;font-variant-numeric:normal;font-variant-east-asian:normal;fill:#000000;fill-opacity:1;stroke:none;stroke-width:0.264583"
       x="303.3017"
       y="66.141769"
       id="text15388-5"><tspan
         sodipodi:role="line"
         id="tspan15386-5"
         style="font-style:normal;font-variant:normal;font-weight:normal;font-stretch:normal;font-size:15.875px;font-family:sans-serif;-inkscape-font-specification:'sans-serif, Normal';font-variant-ligatures:normal;font-variant-caps:normal;font-variant-numeric:normal;font-variant-east-asian:normal;stroke-width:0.264583"
         x="303.3017"
         y="66.141769">x=Ax+Bu</tspan></text>
    <path
       style="fill:#000000;fill-rule:evenodd"
       id="path16138-3"
       sodipodi:type="arc"
       sodipodi:cx="308.11005"
       sodipodi:cy="55.191025"
       sodipodi:rx="1.25"
       sodipodi:ry="1.25"
       sodipodi:start="4.7442412"
       sodipodi:end="4.7380453"
       sodipodi:open="true"
       sodipodi:arc-type="arc"
       d="m 308.14985,53.941659 a 1.25,1.25 0 0 1 1.20962,1.287239 1.25,1.25 0 0 1 -1.28536,1.21161 1.25,1.25 0 0 1 -1.2136,-1.283486 1.25,1.25 0 0 1 1.2816,-1.215586" />
    <text
       xml:space="preserve"
       style="font-style:normal;font-variant:normal;font-weight:normal;font-stretch:normal;font-size:15.875px;line-height:1.25;font-family:sans-serif;-inkscape-font-specification:'sans-serif, Normal';font-variant-ligatures:normal;font-variant-caps:normal;font-variant-numeric:normal;font-variant-east-asian:normal;fill:#000000;fill-opacity:1;stroke:none;stroke-width:0.264583"
       x="303.67914"
       y="84.174995"
       id="text2713"><tspan
         sodipodi:role="line"
         id="tspan2711"
         style="font-style:normal;font-variant:normal;font-weight:normal;font-stretch:normal;font-size:15.875px;font-family:sans-serif;-inkscape-font-specification:'sans-serif, Normal';font-variant-ligatures:normal;font-variant-caps:normal;font-variant-numeric:normal;font-variant-east-asian:normal;stroke-width:0.264583"
         x="303.67914"
         y="84.174995">y=Cx</tspan></text>
    <path
       style="fill:none;stroke:#000000;stroke-width:1;stroke-linecap:butt;stroke-linejoin:miter;stroke-miterlimit:4;stroke-dasharray:none;stroke-opacity:1;marker-end:url(#Arrow1Mend-3)"
       d="m 387.03739,59.94166 h 28.61169"
       id="path5357" />
    <path
       style="fill:none;stroke:#000000;stroke-width:1;stroke-linecap:butt;stroke-linejoin:miter;stroke-miterlimit:4;stroke-dasharray:none;stroke-opacity:1;marker-end:url(#Arrow1Mend-3)"
       d="m 387.03739,89.055801 h 28.61169"
       id="path15052" />
    <text
       xml:space="preserve"
       style="font-style:normal;font-variant:normal;font-weight:normal;font-stretch:normal;font-size:15.875px;line-height:1.25;font-family:sans-serif;-inkscape-font-specification:'sans-serif, Normal';font-variant-ligatures:normal;font-variant-caps:normal;font-variant-numeric:normal;font-variant-east-asian:normal;fill:#000000;fill-opacity:1;stroke:none;stroke-width:0.264583"
       x="395.7128"
       y="82.615402"
       id="text9587-4"><tspan
         sodipodi:role="line"
         id="tspan9585-0"
         style="font-style:normal;font-variant:normal;font-weight:normal;font-stretch:normal;font-size:15.875px;font-family:sans-serif;-inkscape-font-specification:'sans-serif, Normal';font-variant-ligatures:normal;font-variant-caps:normal;font-variant-numeric:normal;font-variant-east-asian:normal;stroke-width:0.264583"
         x="395.7128"
         y="82.615402">y</tspan></text>
    <path
       style="fill:none;stroke:#000000;stroke-width:1;stroke-linecap:butt;stroke-linejoin:miter;stroke-miterlimit:4;stroke-dasharray:none;stroke-opacity:1;marker-end:url(#Arrow1Mend)"
       d="m 136.43344,75.499998 h 28.61169"
       id="path1165" />
    <path
       style="fill:#000000;fill-rule:evenodd;stroke:#000000;stroke-width:0.100075;stroke-linecap:round;stroke-linejoin:round;stroke-opacity:1"
       d="m 152.8942,68.589287 c -0.27567,-0.0672 -0.52799,-0.24893 -0.59674,-0.42987 -0.0793,-0.20859 0.0134,-0.47936 0.20024,-0.58525 0.1563,-0.0886 0.30479,-0.0782 0.69355,0.0483 0.31254,0.10175 0.35026,0.10819 0.57458,0.0981 0.47889,-0.0216 0.7743,-0.25119 0.9181,-0.71352 0.0711,-0.2286 0.068,-0.5819 -0.007,-0.78212 -0.0741,-0.19832 -0.25594,-0.38377 -0.4198,-0.42826 -0.087,-0.0236 -0.42171,-0.0304 -1.24396,-0.0251 -1.2384,0.008 -1.40064,-0.005 -1.81313,-0.14156 -0.3338,-0.1107 -0.59466,-0.26707 -0.8538,-0.5118 -0.51526,-0.48664 -0.76119,-1.02596 -0.79293,-1.73891 -0.0386,-0.86621 0.26313,-1.6409 0.88026,-2.26038 0.35881,-0.36017 0.67004,-0.61396 1.01374,-0.82665 0.005,-0.003 -0.0892,-0.11674 -0.20926,-0.25258 -0.35909,-0.40628 -0.51524,-0.83 -0.45048,-1.22237 0.0544,-0.32945 0.26245,-0.76961 0.47525,-1.00532 0.0525,-0.0581 0.0809,-0.11022 0.0671,-0.12293 -0.0132,-0.0121 -0.0848,-0.0418 -0.15912,-0.0659 -0.0743,-0.0241 -0.22917,-0.10603 -0.3441,-0.18204 -0.16128,-0.10667 -0.22832,-0.17073 -0.29384,-0.28079 -0.23104,-0.38814 -0.15759,-0.91416 0.15796,-1.13122 0.19787,-0.1361 0.40011,-0.20232 0.66144,-0.21656 l 0.23161,-0.0126 v 0.14526 0.14526 l -0.14981,0.0301 c -0.17469,0.0351 -0.35392,0.13273 -0.41504,0.22607 -0.0738,0.11276 -0.10235,0.29906 -0.0698,0.45596 0.0249,0.11969 0.0503,0.15974 0.17208,0.27116 0.15511,0.14186 0.38302,0.2689 0.48239,0.2689 0.0406,0 0.12875,-0.0626 0.25287,-0.17953 0.23887,-0.2251 0.43407,-0.37474 0.79841,-0.61207 0.56739,-0.36958 1.06226,-0.50115 1.34342,-0.35718 0.0921,0.0472 0.12651,0.11293 0.12651,0.24176 0,0.37828 -0.29911,0.68267 -1.02609,1.04419 l -0.27514,0.13683 -0.42411,0.0208 c -0.23326,0.0114 -0.46379,0.0339 -0.51228,0.0499 -0.16753,0.0553 -0.45045,0.44009 -0.5437,0.7394 -0.0688,0.22076 -0.0936,0.57863 -0.0535,0.7712 0.0301,0.14457 0.29956,0.6189 0.43128,0.7592 0.0784,0.0835 0.13612,0.077 0.38525,-0.0436 0.32074,-0.15521 0.67395,-0.28067 0.98599,-0.35023 0.2392,-0.0533 0.34985,-0.0619 0.79407,-0.0619 0.28388,0 0.54868,0.009 0.58845,0.0202 0.0398,0.0111 0.11421,0.0571 0.16543,0.10207 0.082,0.072 0.0931,0.0969 0.0931,0.2076 0,0.30587 -0.31902,0.52589 -0.88671,0.61153 -0.10191,0.0154 -0.42351,0.0342 -0.71467,0.0418 -0.50135,0.0131 -0.54265,0.0104 -0.78007,-0.0514 -0.17898,-0.0466 -0.26871,-0.0584 -0.31369,-0.0413 -0.31758,0.12083 -1.21204,0.94198 -1.4897,1.36761 -0.14287,0.219 -0.26326,0.55684 -0.31572,0.88602 -0.0461,0.2893 -0.0219,0.73549 0.0501,0.92297 0.12139,0.31608 0.50798,0.66897 0.86429,0.78894 0.34835,0.11729 0.91425,0.13322 2.37515,0.0669 0.4084,-0.0186 0.61183,0.009 0.83252,0.11338 0.36647,0.17309 0.67826,0.57924 0.80946,1.05445 0.0758,0.2746 0.0943,1.02619 0.0332,1.35205 -0.11538,0.61587 -0.55595,1.19835 -1.11271,1.47116 -0.35947,0.17613 -0.87394,0.25129 -1.19111,0.17401 z"
       id="path3619" />
    <text
       xml:space="preserve"
       style="font-style:normal;font-weight:normal;font-size:10.5833px;line-height:1.25;font-family:sans-serif;fill:#000000;fill-opacity:1;stroke:none;stroke-width:0.264583"
       x="232.88034"
       y="89.203072"
       id="text11836-3"><tspan
         sodipodi:role="line"
         id="tspan11834-5"
         style="stroke-width:0.264583"
         x="232.88034"
         y="89.203072">_</tspan></text>
    <text
       xml:space="preserve"
       style="font-style:normal;font-variant:normal;font-weight:normal;font-stretch:normal;font-size:15.875px;line-height:1.25;font-family:sans-serif;-inkscape-font-specification:'sans-serif, Normal';font-variant-ligatures:normal;font-variant-caps:normal;font-variant-numeric:normal;font-variant-east-asian:normal;fill:#000000;fill-opacity:1;stroke:none;stroke-width:0.264583"
       x="396.73044"
       y="56.633827"
       id="text7449"><tspan
         sodipodi:role="line"
         id="tspan7447"
         style="font-style:normal;font-variant:normal;font-weight:normal;font-stretch:normal;font-size:15.875px;font-family:sans-serif;-inkscape-font-specification:'sans-serif, Normal';font-variant-ligatures:normal;font-variant-caps:normal;font-variant-numeric:normal;font-variant-east-asian:normal;stroke-width:0.264583"
         x="396.73044"
         y="56.633827">x</tspan></text>
    <path
       style="fill:#000000;fill-rule:evenodd"
       id="path16138-3-6"
       sodipodi:type="arc"
       sodipodi:cx="401.52252"
       sodipodi:cy="45.191025"
       sodipodi:rx="1.25"
       sodipodi:ry="1.25"
       sodipodi:start="4.7442412"
       sodipodi:end="4.7380453"
       sodipodi:open="true"
       sodipodi:arc-type="arc"
       d="m 401.56233,43.941659 a 1.25,1.25 0 0 1 1.20962,1.287239 1.25,1.25 0 0 1 -1.28537,1.21161 1.25,1.25 0 0 1 -1.2136,-1.283486 1.25,1.25 0 0 1 1.28161,-1.215586" />
    <rect
       style="fill:#ffffff;fill-rule:evenodd;stroke:#000000;stroke-width:1;stroke-linecap:round;stroke-linejoin:round;stroke-miterlimit:4;stroke-dasharray:none"
       id="rect2174-3-5"
       width="39.999996"
       height="34.762501"
       x="323.23959"
       y="128.14584" />
    <text
       xml:space="preserve"
       style="font-style:normal;font-variant:normal;font-weight:normal;font-stretch:normal;font-size:21.1667px;line-height:1.25;font-family:sans-serif;-inkscape-font-specification:'sans-serif, Normal';font-variant-ligatures:normal;font-variant-caps:normal;font-variant-numeric:normal;font-variant-east-asian:normal;fill:#000000;fill-opacity:1;stroke:none;stroke-width:0.264583"
       x="336.50711"
       y="153.19606"
       id="text3384-5-8"><tspan
         sodipodi:role="line"
         id="tspan3382-4-6"
         style="font-style:normal;font-variant:normal;font-weight:normal;font-stretch:normal;font-size:21.1667px;font-family:sans-serif;-inkscape-font-specification:'sans-serif, Normal';font-variant-ligatures:normal;font-variant-caps:normal;font-variant-numeric:normal;font-variant-east-asian:normal;stroke-width:0.264583"
         x="336.50711"
         y="153.19606">k</tspan></text>
    <rect
       style="fill:#ffffff;fill-rule:evenodd;stroke:#000000;stroke-width:0.761058;stroke-linecap:round;stroke-linejoin:round;stroke-miterlimit:4;stroke-dasharray:none"
       id="rect2174-4-0-6"
       width="97.908432"
       height="27.674995"
       x="463.20425"
       y="46.029163" />
    <text
       xml:space="preserve"
       style="font-style:normal;font-variant:normal;font-weight:normal;font-stretch:normal;font-size:15.875px;line-height:1.25;font-family:sans-serif;-inkscape-font-specification:'sans-serif, Normal';font-variant-ligatures:normal;font-variant-caps:normal;font-variant-numeric:normal;font-variant-east-asian:normal;fill:#000000;fill-opacity:1;stroke:none;stroke-width:0.264583"
       x="466.3501"
       y="64.762497"
       id="text10042"><tspan
         sodipodi:role="line"
         id="tspan10040"
         style="font-style:normal;font-variant:normal;font-weight:normal;font-stretch:normal;font-size:15.875px;font-family:sans-serif;-inkscape-font-specification:'sans-serif, Normal';font-variant-ligatures:normal;font-variant-caps:normal;font-variant-numeric:normal;font-variant-east-asian:normal;stroke-width:0.264583"
         x="466.3501"
         y="64.762497">observador</tspan></text>
    <path
       style="fill:none;stroke:#000000;stroke-width:1;stroke-linecap:butt;stroke-linejoin:miter;stroke-miterlimit:4;stroke-dasharray:none;stroke-opacity:1;marker-end:url(#Arrow1Mend-3)"
       d="m 431.82498,59.94166 h 28.61169"
       id="path10922" />
    <path
       style="fill:none;stroke:#000000;stroke-width:1;stroke-linecap:butt;stroke-linejoin:miter;stroke-miterlimit:4;stroke-dasharray:none;stroke-opacity:1;marker-end:url(#Arrow1Mend)"
       d="M 509.99998,45.499999 V 10.5 H 275 v 39.999999 h 19.99999"
       id="path10959" />
    <path
       style="fill:none;stroke:#000000;stroke-width:1;stroke-linecap:butt;stroke-linejoin:miter;stroke-miterlimit:4;stroke-dasharray:none;stroke-opacity:1;marker-end:url(#Arrow1Mend-3)"
       d="M 509.99998,75.499998 V 145.5 H 367"
       id="path12035" />
    <path
       style="fill:none;stroke:#000000;stroke-width:1;stroke-linecap:butt;stroke-linejoin:miter;stroke-miterlimit:4;stroke-dasharray:none;stroke-opacity:1;marker-end:url(#Arrow1Mend)"
       d="M 323,145.5 H 252 V 90.499998"
       id="path12037" />
    <path
       style="fill:none;stroke:#000000;stroke-width:1;stroke-linecap:butt;stroke-linejoin:miter;stroke-miterlimit:4;stroke-dasharray:none;stroke-opacity:1;marker-end:url(#Arrow1Mend)"
       d="M 399.99999,92.481978 V 200.5 H 67 V 91.499998"
       id="path12428" />
  </g>
</svg>
